<?xml version="1.0" standalone="no"?>
<!DOCTYPE svg PUBLIC "-//W3C//DTD SVG 1.1//EN" "http://www.w3.org/Graphics/SVG/1.1/DTD/svg11.dtd" >
<svg xmlns="http://www.w3.org/2000/svg">
<metadata>
Designer    : Ray Larabie
Foundry     : Ray Larabie
Foundry URL : httpwwwlarabiefontscom
</metadata>
<defs>
<font id="webfontSUDurRcB" horiz-adv-x="653" >
<font-face units-per-em="1000" ascent="800" descent="-200" />
<missing-glyph horiz-adv-x="270" />
<glyph unicode=" "  horiz-adv-x="270" />
<glyph unicode="&#x09;" horiz-adv-x="270" />
<glyph unicode="&#xa0;" horiz-adv-x="270" />
<glyph unicode="!" horiz-adv-x="263" d="M185 717q0 -29 0.5 -61.5t0.5 -74.5q0 -134 -1 -249t-7 -212l-35 -4q-15 -1 -27 -1q-10 0 -19 1t-18 4q1 48 1.5 88.5t0.5 76.5q0 88 -2.5 144.5t-6.5 91.5q-3 26 -6 47l-6 42l-8 44l-9 52q0 14 61 14q73 0 81 -3zM190 -10q0 -12 -7.5 -22.5t-19 -18.5t-24.5 -12.5 t-25 -4.5q-56 0 -56 76q0 53 51 53q15 0 29.5 -5.5t26 -15.5t18.5 -22.5t7 -27.5z" />
<glyph unicode="&#x22;" horiz-adv-x="323" d="M301 762q-29 -128 -30 -231q-24 11 -39 11q-1 0 -13 -2l-37 -6q6 21 6 62q0 68 -12 136q-23 -110 -25 -201q-24 11 -39 11q-1 0 -13 -2l-37 -6q6 21 6 67q0 95 -15 155q27 7 72 7q7 0 24 -1t36 -1.5t35.5 -1.5t24.5 -1q17 0 31 1t25 3z" />
<glyph unicode="#" horiz-adv-x="486" d="M286 485q-1 1 -10 1h-10h-20h-40q-5 -22 -9 -44l-8 -45q1 -1 10 -1h10h20h40q4 23 8.5 45t8.5 44zM81 241q5 17 10 37.5t10 45.5q-22 -1 -40.5 -1.5t-33.5 -2.5q9 36 9 73v7q14 -1 35 -1.5t47 -0.5l16 87q-23 -1 -44 -1.5t-37 -2.5q5 20 8 41q2 15 2 30v10q1 -1 15 -1h20 h23h12q12 0 14 -1l5 41q3 19 4 34q13 -1 27 -1h13q20 1 41 6l-7 -35q-5 -21 -10 -47h38h20h10q9 0 10 -1q4 24 6 45l5 36q13 -1 27 -1h14q20 1 41 6q-4 -14 -8.5 -36.5t-10.5 -49.5h46h21h10q10 0 11 1q-6 -23 -9 -43.5t-5 -37.5q-17 2 -39.5 3t-49.5 2l-8 -42l-8 -44 q26 0 49.5 0.5t43.5 1.5q-7 -25 -10 -45t-4 -36q-17 2 -41 3t-52 3l-7 -41q-4 -20 -6 -37q-27 1 -45 1q-25 0 -36 -2q5 15 10 36t10 45h-77q-5 -23 -8 -44.5t-5 -38.5q-18 2 -35 2h-8q-21 -1 -39 -3z" />
<glyph unicode="$" horiz-adv-x="326" d="M331 467q0 -122 -131 -124q1 -23 3 -40.5t4 -31.5q-14 -3 -30 -3h-13l-17 2q-8 0 -15 0.5t-10 0.5q2 21 4 39l4 36q-22 2 -51.5 6t-67.5 11q2 26 2.5 45.5t8.5 22.5q22 -10 50 -17t62 -11v105h-28q-8 0 -14 -0.5t-11 -0.5q-54 0 -62 4q-4 2 -8 14t-7.5 27t-5.5 30t-2 24 q0 123 138 123q-3 13 -3 18t6 22q29 0 51.5 -1.5t24.5 -6.5q-1 -5 -3 -13t-4 -19q25 0 49 -2t48 -6q-2 -27 -2.5 -43t-8.5 -21q-38 18 -96 21q0 -11 -2 -27t-2 -42q0 -10 0.5 -21t1.5 -24h3q5 0 11 0.5t14 0.5h29q43 0 58 -5q3 -1 6.5 -12.5t7 -26.5t6 -30t2.5 -24zM134 675 q-42 -5 -72 -18l-6 -29q-2 -10 -2 -11q0 -27 16.5 -38.5t63.5 -12.5v109zM272 456q0 13 -3 22t-12 14.5t-24 8.5t-39 5q1 -29 1.5 -55t1.5 -49q20 1 36.5 4.5t30.5 8.5l6 30q2 10 2 11z" />
<glyph unicode="%" horiz-adv-x="512" d="M573 87q0 -9 -4 -27l-9 -39l-7.5 -38.5t-3.5 -27.5q0 -4 0.5 -8t1.5 -9q-52 -11 -105 -11q-96 0 -184 27q-5 12 -10 30l-13 42l-36 -91q-51 5 -83 6.5t-48 1.5h-9q42 81 89 184.5t101 235.5q-17 -2 -35 -3t-35 -1q-85 0 -156 25q-21 79 -21 130q0 79 48 123h14 q32 0 86 -4.5t132 -12.5q9 -20 14 -45t5 -56q0 -6 -0.5 -12t-0.5 -13l35 96q15 43 23 75l135 -39q-32 -60 -80 -166.5t-111 -265.5q61 0 243 -18q24 -45 24 -89zM243 516q0 56 -9 76l-72 8q-27 3 -35 3q-20 0 -36 -3q-29 -61 -29 -116q0 -23 4 -38t15 -24t32 -12.5t54 -3.5 q28 0 43.5 2.5t22.5 13.5t8.5 33t1.5 61zM501 73q0 58 -10 77q-10 2 -29.5 4t-39.5 3.5t-36.5 2.5t-19.5 1q-10 0 -19 -0.5t-17 -1.5q-31 -55 -31 -108q0 -23 4.5 -38t18.5 -24t38.5 -12.5t65.5 -3.5q28 0 43 3t22 13.5t8.5 30t1.5 53.5z" />
<glyph unicode="&#x26;" horiz-adv-x="622" d="M604 212q-10 0 -27.5 2l-36.5 4l-34 5q-16 2 -22 3q-19 -19 -19 -78q0 -74 19 -119q12 -1 24.5 -1.5t26.5 -0.5q18 0 35 0.5t23 1.5v-24q0 -20 2 -36.5t5 -30.5q-5 -1 -28.5 -2.5t-59 -3.5t-80.5 -4l-90 -4l-92 -4q-44 -2 -80 -4t-60 -3.5t-29 -2.5q-66 106 -66 186 q0 90 100 226q-1 16 -9 48l-16 68l-15 68.5t-7 49.5q0 78 64 136q45 -9 97 -9q11 0 34.5 1.5t51 3.5t54 3.5t43.5 1.5h11l21 -1q26 -61 26 -144q0 -14 -1.5 -41t-3.5 -57t-3.5 -57t-1.5 -40q0 -9 11 -15t30 -9t44.5 -4.5t54.5 -2.5q-1 -3 -1 -11v-11q0 -52 15 -88h-10z M358 406q-3 112 -3 162q-98 -2 -165 -12q-2 -14 -3.5 -27t-1.5 -24q0 -54 26.5 -77.5t95.5 -23.5q11 0 24 0.5t27 1.5zM361 262q-128 12 -132 12q-17 0 -31.5 -13t-26 -33t-18 -45t-6.5 -49q0 -51 23.5 -80.5t82.5 -29.5q5 0 17 0.5t24 0.5q13 0 25 0.5t17 0.5q6 39 12 98 t13 138z" />
<glyph unicode="'" horiz-adv-x="203" d="M181 762q-29 -128 -30 -231q-24 11 -39 11l-50 -8q6 21 6 66q0 97 -15 156q16 4 51 4q8 0 17.5 -0.5t17.5 -0.5q27 0 42 3z" />
<glyph unicode="(" horiz-adv-x="306" d="M270 -225q0 -22 3 -40q-124 9 -182 117q-64 118 -64 419q0 506 247 549q-6 -24 -6 -57q0 -22 3 -41q-163 -46 -163 -456q0 -98 9.5 -177t30 -135t52 -88.5t75.5 -37.5q-3 -11 -4 -24.5t-1 -28.5z" />
<glyph unicode=")" horiz-adv-x="306" d="M35 779q0 22 -3 40q124 -9 182 -117q64 -119 64 -428q0 -254 -60 -386t-184 -154q6 24 6 57q0 21 -3 41q160 45 160 447q0 98 -9.5 178.5t-30 138.5t-52 91.5t-75.5 38.5q3 11 4 24.5t1 28.5z" />
<glyph unicode="*" horiz-adv-x="547" d="M216 438q-32 13 -80.5 27t-114.5 29q14 22 24 47.5t17 55.5q114 -79 177 -92v12q0 27 -3 71q-4 54 -14 136q38 -8 75 -8q18 0 36 2q-17 -111 -17 -172q0 -23 2 -39q51 0 189 53q2 -28 7 -53t13 -48q-64 -4 -109.5 -11t-73.5 -17q22 -54 114 -146q-24 -17 -45 -34.5 t-40 -36.5q-26 63 -50.5 105t-47.5 65q-51 -45 -116 -165q-30 39 -88 66q52 45 88.5 83t56.5 70z" />
<glyph unicode="+" horiz-adv-x="610" d="M483 416q0 -18 -1 -35t-5 -30t-12 -21t-21 -8q-18 0 -97 18l-1 -21v-12q0 -22 4 -41t9 -36q-18 1 -46.5 5t-70.5 12q12 48 21 107q-33 3 -47 3q-40 0 -75 -20l9 130q10 -11 19.5 -18t22.5 -11.5t31.5 -7t46.5 -4.5q1 15 1.5 27.5t0.5 23.5q0 45 -9 80l118 -8 q-16 -52 -27 -124q55 3 129 18v-27z" />
<glyph unicode="," horiz-adv-x="205" d="M195 66q-63 -116 -92 -214q-22 19 -42 22l-43 5q7 11 16 38.5t16.5 60.5t13.5 65t7 52q10 -1 28.5 -5.5t37 -10t35 -9.5t23.5 -4z" />
<glyph unicode="-" horiz-adv-x="409" d="M389 351q-14 -3 -35 -3q-16 0 -50 3t-71.5 6t-71.5 6t-51 3q-54 0 -74 -14v25q0 57 3 96l16 -2q16 -2 39 -4.5t47 -4.5t40 -2h208v-109z" />
<glyph unicode="." horiz-adv-x="223" d="M190 -10q0 -12 -7.5 -22.5t-19 -18.5t-24.5 -12.5t-25 -4.5q-56 0 -56 76q0 53 51 53q15 0 29.5 -5.5t26 -15.5t18.5 -22.5t7 -27.5z" />
<glyph unicode="/" horiz-adv-x="497" d="M497 626q-38 -69 -77 -153.5t-81 -187.5l-68 -175l-68 -175q-45 5 -76 6.5t-51 1.5h-13q111 215 185 393t114 329q25 -5 135 -39z" />
<glyph unicode="0" horiz-adv-x="623" d="M616 331q0 -166 -82 -317q-149 -18 -325 -18q-10 0 -28 2.5t-37 5.5l-34 7q-17 3 -24 4q-54 148 -54 402v27l2 42q0 22 0.5 40.5t0.5 23.5q0 8 3 26l8 41l8 43q3 20 3 32q0 8 -0.5 15t-1.5 14q104 53 255 53q134 0 241 -42l28 -122q11 -49 16 -77q21 -113 21 -202z M500 402q0 183 -84 240q-5 0 -18 0.5t-28 0.5t-29 0.5t-22 0.5q-115 0 -140 -28q-26 -29 -26 -204q0 -237 30 -307l105 -8q39 -3 52 -3q71 0 118 16q42 151 42 292zM390 390q0 -11 -7 -21.5t-18.5 -18.5t-25 -13t-25.5 -5q-56 0 -56 76q0 53 51 53q15 0 29.5 -5.5t26 -15.5 t18.5 -22.5t7 -27.5z" />
<glyph unicode="1" horiz-adv-x="243" d="M217 637q-26 -88 -37.5 -209t-11.5 -282q0 -45 1.5 -84t3.5 -74q-17 -3 -33 -3q-11 0 -24 1l-28 4q-35 5 -44 6.5t-9 3.5q0 14 5 44.5t12 63.5l12 62q6 29 7 40l27 386q-18 18 -43 18q-34 0 -76 -33q5 29 9.5 49t4.5 44q0 13 -5 31q3 -1 14 -1h15h26l35 2h36q17 1 25 1 q94 0 94 -15z" />
<glyph unicode="2" horiz-adv-x="525" d="M523 546q0 -126 -112 -166q-51 -17 -104.5 -30t-104.5 -33q-59 -23 -83.5 -76.5t-24.5 -129.5h14q274 0 380 58q16 -19 18 -128q-177 -36 -301 -36q-12 0 -37 -1t-53 -2.5t-53 -2.5t-37 -1q-23 0 -29 11t-6 37q0 58 5.5 106.5t18.5 89t35 73t56 59.5q28 22 80 45t130 46 q114 34 114 87q0 24 -19 37.5t-47 20.5t-58.5 9t-53.5 2q-116 0 -199 -44q-17 21 -18 117q64 13 133 19.5t147 6.5q97 0 153 -46.5t56 -127.5z" />
<glyph unicode="3" horiz-adv-x="630" d="M618 96q0 -80 -66 -186q-106 14 -196 21.5t-169 7.5q-99 0 -147 -13q-25 40 -25 112q0 32 6 70l122 10q23 -92 86 -92q9 0 27 -0.5t37 -0.5q20 0 37.5 -0.5t26.5 -0.5q34 0 58 2.5t39 13t22 32.5t7 61q0 27 -6 52t-16.5 45t-25 32t-32.5 12q-1 0 -55 -5l-159 -15 q26 26 26 69q0 45 -26 89q10 -2 28 -3.5t38 -3t39 -2t31 -0.5q122 0 122 105q0 10 -1.5 22t-3.5 26q-77 12 -210 12q-30 0 -47 -3t-25.5 -10.5t-11 -20.5t-3.5 -32l-113 10v4q0 42 10 85t32 92q58 0 102 -2t78 -5l59 -4q26 -2 47 -2q40 0 75 2.5t66 9.5q62 -59 62 -135 q0 -18 -4.5 -51.5t-11.5 -69t-15 -67.5t-15 -47q21 -22 39.5 -52t32 -61.5t21.5 -61t8 -51.5z" />
<glyph unicode="4" horiz-adv-x="518" d="M509 170q-34 22 -64 22q-9 0 -11 -8v1q1 0 1 -5q0 -11 -1 -38l-4 -60q-2 -35 -5 -72t-6 -68t-6 -51.5t-6 -21.5l-24 4q-18 3 -37 9.5t-34 17t-15 26.5q0 14 5 41l10 57l11 57q5 27 5 41q0 84 -75 92q-57 5 -104 7.5t-89 2.5h-26h-12q-6 0 -11 -1q40 121 40 308 q0 76 -9 130q7 1 14 1.5t15 0.5q6 0 18.5 -1t26 -1.5t26.5 -1.5t19 -1q26 0 39 4q2 -6 2 -9q0 -5 -3.5 -23.5l-8.5 -43.5l-12 -56q-7 -29 -12.5 -56.5t-9 -49.5t-3.5 -32q0 -40 10 -61q7 -1 25 -5l36 -10q20 -6 39 -10t30 -4q21 0 32.5 11.5t16.5 31t6.5 44.5t3.5 51 t6.5 51.5t16.5 46.5q35 -10 63 -16l47 -10q-35 -112 -44 -222q14 1 23 1.5t13 0.5q27 0 40 -10z" />
<glyph unicode="5" horiz-adv-x="589" d="M589 179q0 -174 -236 -174q-92 0 -273 36q1 36 2 58t2.5 35t4.5 20.5t9 14.5q22 -12 54 -23t68 -19.5t72 -13.5t66 -5q146 0 146 95q0 29 -8.5 51t-37.5 37t-85 22.5t-152 7.5q-12 0 -35 -1h-46q-24 -1 -45.5 -1.5t-31.5 -0.5q21 112 21 238q0 104 -21 148q20 0 63.5 2 t91.5 4l92 4q44 2 66 2q90 0 156 -12q-1 -35 -1.5 -55t-2 -31.5t-5 -18t-9.5 -12.5q-72 39 -171 39q-101 0 -180 -40q-12 -65 -12 -99q0 -35 9 -62q60 -17 126 -17q10 0 32 1t46 3l44 2q22 2 32 2q40 0 68.5 -11.5t46.5 -39t26 -73t8 -113.5z" />
<glyph unicode="6" horiz-adv-x="537" d="M530 206q0 -126 -43 -222h-11q-26 0 -100.5 1t-200.5 3q-7 0 -14.5 -0.5t-15.5 -0.5q-24 0 -53.5 1t-64.5 3q0 16 -0.5 50t-1.5 71.5t-1.5 71t-0.5 50.5q0 343 111 492q12 -1 30 -6l38 -12l34 -11q15 -5 21 -6q0 -1 -17 -22l-36 -49q-20 -27 -36.5 -54.5t-16.5 -41.5 q0 -16 12 -23q14 0 45 1.5t66.5 3.5t68.5 3.5t50 1.5q22 0 42 -1.5t38 -3.5q57 -155 57 -300zM437 220q0 163 -55 163h-248q-8 -14 -8 -54q0 -14 0.5 -34t2.5 -48q3 -39 3 -66v-12v-7q0 -24 6 -38q6 -15 27 -19.5t69 -4.5q64 0 110.5 1.5t77.5 5.5q15 19 15 113z" />
<glyph unicode="7" horiz-adv-x="594" d="M594 642q-20 -35 -75 -121l-149 -225q-143 -212 -201 -360q-87 18 -95 18q-16 0 -71 -6q35 68 183 286q121 179 164 297q-14 0 -46 4t-68.5 9.5t-71 9.5t-53.5 4q-35 0 -66 -6q22 44 22 83q0 27 -12 56q136 -56 399 -56q42 0 76.5 1.5t63.5 5.5z" />
<glyph unicode="8" horiz-adv-x="629" d="M617 96q0 -79 -65 -186q-105 14 -195 21.5t-169 7.5q-97 0 -148 -13q-21 37 -21 123q0 42 6 83t16.5 75t25.5 58.5t33 33.5q-68 119 -68 220q0 81 42 173l25 1h10q21 0 54 -2t67.5 -4.5t66 -4.5t50.5 -2q37 0 70.5 2.5t63.5 9.5q68 -65 68 -154q0 -18 -5 -49t-11 -64 l-11 -62q-5 -29 -5 -41q100 -133 100 -226zM448 497q0 26 -6 59q-77 12 -193 12h-54q-63 0 -63 -93q0 -63 21 -91q10 0 32 -1t46 -2.5t46 -2.5t33 -1q77 0 107.5 28.5t30.5 91.5zM484 131q0 28 -6.5 53.5t-18 45.5t-27 32t-34.5 12h-231q-39 -45 -39 -121q0 -44 12.5 -70 t34.5 -39.5t51.5 -17t62.5 -3.5h70q33 0 57 3t39 14t22 32.5t7 58.5z" />
<glyph unicode="9" horiz-adv-x="542" d="M515 434q0 -344 -111 -492q-12 0 -31 5t-38 11l-35 12q-15 6 -20 7q0 -1 16.5 19.5t37 48.5t37 56.5t16.5 42.5q0 17 -13 24q-13 -1 -44 -3t-66 -3l-69 -4q-33 -1 -50 -1q-22 0 -42 1.5t-38 3.5q-57 154 -57 300q0 126 43 222h11q14 0 42 0.5t70 0.5q58 0 141.5 -1.5 t195.5 -6.5q0 -17 0.5 -50.5t1.5 -71t1.5 -71.5t0.5 -50zM411 339q0 11 -1 34t-2.5 48t-2.5 48t-1 34q0 21 -2.5 34t-12.5 20t-30 9t-55 2q-64 0 -111 -1.5t-78 -5.5q-14 -20 -14 -113q0 -163 55 -163h248q7 10 7 54z" />
<glyph unicode=":" horiz-adv-x="212" d="M190 290q0 -11 -7 -21.5t-18.5 -18.5t-25 -13t-25.5 -5q-56 0 -56 76q0 53 51 53q15 0 29.5 -5.5t26 -15.5t18.5 -22.5t7 -27.5zM190 -10q0 -12 -7.5 -22.5t-19 -18.5t-24.5 -12.5t-25 -4.5q-56 0 -56 76q0 53 51 53q15 0 29.5 -5.5t26 -15.5t18.5 -22.5t7 -27.5z" />
<glyph unicode=";" horiz-adv-x="202" d="M190 290q0 -11 -7 -21.5t-18.5 -18.5t-25 -13t-25.5 -5q-56 0 -56 76q0 53 51 53q15 0 29.5 -5.5t26 -15.5t18.5 -22.5t7 -27.5zM195 66q-63 -116 -92 -214q-22 19 -42 22l-43 5q7 11 16 38.5t16.5 60.5t13.5 65t7 52q10 -1 28.5 -5.5t37 -10t35 -9.5t23.5 -4z" />
<glyph unicode="&#x3c;" horiz-adv-x="674" d="M625 346q-77 0 -137 2t-107 5t-83 5t-64 2q42 -25 84 -43t77 -30q-1 -29 -5 -55t-11 -49l-41 21l-61 32l-71 36l-72 38l-62 34l-43 25v75q13 4 41 18l61 31l72 39l73 41l62 35l43 24q8 -24 11.5 -50.5t3.5 -57.5q-38 -11 -74 -27t-80 -44q20 -2 52 -3t70 -2t79.5 -1.5 t81.5 -0.5h100v-100z" />
<glyph unicode="=" horiz-adv-x="443" d="M389 451q-14 -3 -35 -3q-16 0 -50 3t-71.5 6t-71.5 6t-51 3q-54 0 -74 -14v25q0 57 3 96l16 -2q16 -2 39 -4.5t47 -4.5t40 -2h208v-109zM400 252q-19 16 -92 16q-15 0 -45.5 -1.5t-63.5 -3.5t-63 -3.5t-45 -1.5q-28 0 -44 3v109q13 0 41 -0.5t59 -0.5t59.5 -0.5 t42.5 -0.5q42 0 79 1.5t69 3.5q3 -41 3 -92v-29z" />
<glyph unicode="&#x3e;" horiz-adv-x="674" d="M29 468q77 0 137 -2t107 -5t82.5 -5t64.5 -2q-42 25 -84 43t-77 30q1 29 5 55t11 49l41 -21l61 -32l71 -36l72 -38l62 -34l43 -25v-75q-13 -4 -41 -18l-61 -31l-72 -39l-73 -41l-62 -35l-43 -24q-8 24 -11.5 50.5t-3.5 57.5q38 11 74 27t80 44q-27 2 -73.5 3.5 t-100.5 1.5l-110 2h-99v100z" />
<glyph unicode="?" horiz-adv-x="523" d="M523 546q0 -109 -66 -149q-32 -11 -65 -20.5t-60.5 -23.5t-45 -35.5t-17.5 -57.5q0 -50 27 -129q-2 0 -13 -1t-26 -2l-30 -2q-15 -1 -24 -1q-29 0 -33 6q-2 3 -5.5 19t-6.5 36.5t-5 40t-2 30.5q0 94 73 140q2 2 36 16l99 43q72 30 72 84q0 20 -9 46q-73 35 -171 35 q-116 0 -199 -44q-17 19 -18 117q64 13 133 19.5t147 6.5q97 0 153 -46.5t56 -127.5zM314 -10q0 -12 -7.5 -22.5t-19 -18.5t-24.5 -12.5t-24 -4.5q-57 0 -57 76q0 53 51 53q15 0 29.5 -5.5t26 -15.5t18.5 -22.5t7 -27.5z" />
<glyph unicode="@" horiz-adv-x="672" d="M654 24q-73 37 -223 37q-21 0 -63.5 -2t-89.5 -5t-90 -5t-64 -2q-33 0 -52.5 2t-29 12.5t-12.5 33.5t-3 64q0 11 1 35l4 54l4 62q2 33 4 61l4 48q1 20 1 25q0 9 -1 26.5t-2.5 36.5t-2.5 36t-1 26q0 72 36.5 103t120.5 31q19 0 57 -4.5t80 -10.5l78 -10q36 -4 52 -4 q6 0 16 0.5t21 1t21 1t16 0.5q70 0 95 -46q5 -12 5 -182q0 -179 -5 -201q-18 -64 -199 -64q-26 0 -40 21t-24 77q-1 -2 -2 -5t-2 -5l-10 -24q-5 -13 -12.5 -23t-18 -16.5t-25.5 -6.5q-123 0 -123 116q0 54 22 77.5t74 23.5q7 0 19 -0.5t25.5 -1.5t25 -1.5t17.5 -0.5 q5 20 5 30q0 43 -41 43q-23 0 -48 -14t-34 -34l-61 59q16 1 39 10l46 19q25 11 48.5 19.5t40.5 8.5q101 0 101 -97q0 -12 -4 -35l-6 -48l-8 -46q-3 -23 -3 -35q0 -45 37 -45q82 0 82 162q0 21 -2.5 46.5t-6.5 48.5t-9 39.5t-10 20.5q-74 56 -204 56q-6 0 -19 -0.5t-27 -0.5 q-13 0 -25.5 -0.5t-18.5 -0.5q-11 0 -32.5 1.5t-32.5 1.5q-17 0 -36 -8q-2 -1 -4.5 -18t-4.5 -44l-6 -61q-3 -34 -5 -69t-3 -67.5t-1 -57.5q0 -106 10 -125q33 -68 211 -68q34 0 112.5 7.5t205.5 23.5zM341 361q-3 -1 -12 -1q-6 0 -14.5 1.5t-18 3t-18 3t-13.5 1.5 q-26 0 -26 -61q0 -44 36 -44q12 0 24 10.5t21.5 25.5t15 31t5.5 27v3z" />
<glyph unicode="A" d="M323 445q-96 -168 -97 -230h165q5 15 5 26q0 12 -5.5 31t-23.5 64q-8 23 -19 50zM651 33q-5 -19 -41 -42l-82 -53q-11 11 -21 35l-20 50l-19 49q-9 23 -18 32q-51 7 -86.5 10t-57.5 3q-166 0 -166 -149l-54 15q-32 9 -77 20l63 139l63 142q37 84 61 155.5t37 134.5 q-11 2 -23 3t-23 1q-31 0 -56 -9q-12 15 -12 107q37 -3 123 -3h127q42 1 80 1.5t56 0.5q2 -17 3 -42l4 -59q-5 -1 -18 -1.5t-35 -0.5q-9 0 -19.5 0.5t-22.5 0.5q-3 -6 -3 -17q0 -69 94 -273q95 -209 143 -250z" />
<glyph unicode="B" horiz-adv-x="633" d="M613 39q0 -91 -70 -188q-268 58 -436 58q-22 0 -40 -1.5t-34 -3.5q-5 17 -5 47q0 7 2 37l6 76l9 102t9.5 114t9.5 114t8 102l6 76q3 30 3 38q0 39 -6 51q12 -1 38 -3l59 -6q34 -4 71.5 -7.5t73 -6.5t66.5 -5t50 -2q49 0 93 6q11 -13 20.5 -36.5t17 -53.5t11.5 -63t4 -64 q0 -38 -6.5 -60.5t-14.5 -37.5l-14 -27q-7 -12 -7 -30q0 -3 5 -16l14 -33l19 -44q10 -24 18.5 -48t14 -46.5t5.5 -38.5zM480 465v18v10q0 6 -1 11q-128 30 -255 30q-62 0 -62 -106q0 -54 16 -76q7 0 30 -3l52 -7l55.5 -6t44.5 -3q63 0 91.5 30t28.5 102zM491 64 q0 30 -5.5 58.5t-16 51t-24.5 36.5t-30 15l-230 17q-49 -48 -49 -132q0 -54 24 -85.5t69 -34.5l190 -14q8 3 20.5 4.5t24 9t19.5 24t8 50.5z" />
<glyph unicode="C" horiz-adv-x="552" d="M552 691q-1 -35 -2 -55.5t-2.5 -32.5t-4.5 -18t-9 -11q-72 39 -180 39q-112 0 -191 -39q-7 -42 -10.5 -107.5t-3.5 -159.5q0 -60 2.5 -95.5t16 -54t43.5 -24t84 -5.5q68 0 142 13l10 3l22.5 4.5t22.5 5.5l11 2q6 0 13 -12.5t12 -29.5t8.5 -35t3.5 -28q0 -14 -13.5 -21 t-44.5 -10.5t-82 -4t-126 -0.5q-81 0 -126.5 2t-56.5 8q-31 15 -31 340v38l2 54q0 28 0.5 50t0.5 26q11 182 277 182q95 0 212 -24z" />
<glyph unicode="D" horiz-adv-x="670" d="M659 298q0 -13 -3 -44.5t-9.5 -70.5t-15.5 -80.5t-21 -73.5q-2 -5 -24.5 -10.5t-53.5 -9.5t-64 -6.5t-57 -2.5h-255q-39 0 -39 41q0 14 6 43q2 7 3.5 41.5t2.5 84t2 106.5t1.5 109.5t1.5 93t2 56.5q-47 24 -80 24q-19 0 -34 -4v121l236 -18l332 -29q1 -12 6 -38l14 -60 l16 -73q9 -38 16 -75.5t12 -70t5 -54.5zM551 224q0 143 -51 350q-158 28 -225 28q-15 0 -25 -17.5t-17 -58t-10 -106t-3 -162.5v-35q0 -16 0.5 -33.5t0.5 -33.5t0.5 -28.5t0.5 -16.5l16 -12q9 0 26.5 -1t37.5 -1.5t38.5 -1.5t27.5 -1q183 0 183 130z" />
<glyph unicode="E" horiz-adv-x="654" d="M654 654q-5 -17 -8.5 -39.5t-5.5 -50.5q-24 1 -66 2l-86 4q-44 1 -80 2.5t-48 3.5q-41 -27 -41 -111q0 -53 21 -78h146q45 0 80.5 -1.5t64.5 -5.5q-17 -33 -21 -108q-8 -8 -36 -8q-14 0 -44 3l-61 6l-61 6q-30 3 -45 3q-20 0 -32 -2.5t-18 -8t-8 -14.5t-2 -21 q0 -53 3 -85.5t12.5 -51t27.5 -25t47 -6.5q10 0 29.5 1t41.5 2t41.5 2t29.5 1q14 0 28.5 -0.5t28.5 -1.5q-5 -22 -7 -47t-3 -54q-8 -3 -35 -3q-15 0 -46 1l-65 2q-34 1 -64.5 2t-44.5 1q-96 0 -145 -11q0 5 2 43l5 94l7 120l6 120l5 96q2 39 2 45q0 24 -0.5 47t-1.5 46 q-24 9 -57 9q-56 0 -105 -23q4 25 8 62t9 88q54 -13 127 -20.5t168 -11.5q208 -8 297 -24z" />
<glyph unicode="F" horiz-adv-x="584" d="M584 699q-4 -17 -6 -39.5t-2 -51.5h-38q-20 0 -50 -1t-72 -3q-46 -3 -76 -3.5t-47 -8.5t-24 -28t-7 -62q0 -66 27 -91q8 0 40 2t72 5t79.5 5t62.5 2h19h9q4 0 9 -1q-15 -39 -15 -92q0 -5 0.5 -9t0.5 -9q-30 -9 -109 -9q-8 0 -25 1h-34q-18 1 -34 1.5t-24 0.5 q-75 0 -75 -25v-12q0 -218 20 -267q-19 -1 -49.5 -8t-74.5 -20v15q0 8 -0.5 15.5t-0.5 16.5q0 29 1 69.5t2.5 80.5t3 73.5t1.5 47.5q0 334 -69 334q-62 0 -96 -21v113q48 -8 110.5 -11t143.5 -3h99q78 0 134 -1.5t94 -5.5z" />
<glyph unicode="G" horiz-adv-x="607" d="M601 55q-11 -1 -49.5 -6.5t-85.5 -11.5t-94 -11t-75 -5q-123 0 -244 67q-54 168 -54 303q0 155 71 309q122 52 265 52q111 0 184 -37l-24 -113q-60 12 -121.5 21t-102.5 9q-86 0 -126 -42q-15 -16 -24 -30.5t-13.5 -39t-5.5 -64.5t-1 -106q0 -63 8 -106t27.5 -69 t53.5 -37.5t86 -11.5q9 0 31.5 1.5t48.5 3.5t52 3.5t42 1.5h13q7 14 7 40q0 9 -1 25.5t-1 24.5q0 10 3 28.5t3 28.5q0 18 -5.5 27t-15.5 12.5t-25.5 4t-34.5 0.5q-27 0 -58 7q-10 -4 -20 -6t-22 -2q-17 0 -29.5 1t-14.5 1q-41 0 -72 -22v38v42q0 11 -0.5 24.5t-1.5 27.5 q20 7 261 7h156q-27 -44 -27 -223v-85q0 -10 15 -40z" />
<glyph unicode="H" horiz-adv-x="711" d="M711 607q-17 -54 -29.5 -115.5t-20.5 -131.5q-5 -43 -8.5 -105.5t-7.5 -147.5q0 -3 -1.5 -24.5l-3.5 -48.5l-2 -56q-2 -29 -2 -46q0 -7 2.5 -21t2.5 -22q0 -21 -15 -25l-72 26q-36 13 -62 16q34 25 42 87l3 102q0 10 0.5 16.5t0.5 11.5q0 54 -24.5 77.5t-84.5 23.5 q-5 0 -17 -0.5t-26 -1.5h-26q-12 -1 -18 -1q-44 0 -81 3q-13 -79 -19 -135t-6 -90q0 -20 1.5 -37.5t3.5 -33.5q-46 2 -77.5 3.5t-50.5 1.5h-13q28 91 44 243.5t20 370.5q-26 14 -61 14q-41 0 -82 -16v4q0 5 -1 15.5t-1.5 22.5t-1.5 22.5t-1 15.5q0 32 12 49q8 0 34.5 -2.5 t59.5 -6t65.5 -6t52.5 -2.5q23 0 43 1.5t37 5.5q1 -1 1 -9q0 -6 -5 -27l-12 -55q-31 -121 -31 -181q0 -39 10 -59q10 -1 37 -7l60 -12q33 -6 65 -11t50 -5q28 0 44.5 9t24.5 30.5t10 56.5t2 88q0 105 25 151q35 -10 63 -16z" />
<glyph unicode="I" horiz-adv-x="202" d="M184 607q0 -1 -12 -56q-11 -52 -16.5 -122.5t-5.5 -160.5q0 -100 6 -190t17 -178q-21 -6 -49 -6q-46 0 -67 3t-21 14q0 14 3 42.5t7 59t7 59t3 42.5v421q0 8 -3 22t-3 21q0 9 11 44q25 0 47 -0.5t39 -2t27 -4.5t10 -8z" />
<glyph unicode="J" horiz-adv-x="598" d="M575 510q0 -324 -62 -551q-22 -13 -81 -13q-8 0 -44 2.5t-102 7.5l-11 8q-42 2 -81.5 5t-79.5 5q-36 5 -41 41l-18 144l114 -8q7 -54 24 -77q96 -18 184 -18q19 0 29.5 0.5t17 4t10.5 11.5t9 23q41 140 41 293q0 202 -97 208l6 100q151 -13 166 -21q16 -7 16 -165z" />
<glyph unicode="K" horiz-adv-x="741" d="M741 -92q-10 -10 -47 -24l-82 -31q-13 36 -28 85l-34 99q-17 51 -36 100.5t-38 88.5t-38.5 63t-37.5 24q-17 0 -37 -16.5t-36.5 -40t-27.5 -49t-11 -43.5q0 -68 21 -150q-21 -4 -44.5 -5.5t-49.5 -1.5q-6 0 -13.5 0.5t-16.5 0.5h-35q31 13 31 306q0 61 -1.5 132t-3.5 156 q-46 20 -92 20q-40 0 -81 -10q0 6 1 15.5t1.5 20t1.5 20.5t1 16q0 14 -5 34q14 0 38 -1.5t52.5 -3.5t60 -4t60 -4t52 -3.5t36.5 -1.5q0 -19 -1.5 -61t-3.5 -88.5t-3.5 -90t-1.5 -65.5q41 7 182 157q134 146 134 184v3q6 2 8 2q13 0 31.5 -16.5t35.5 -36t29 -35.5l13 -16 q2 -11 -116 -102q-118 -93 -118 -123q0 -10 21.5 -57t56.5 -117l80 -157z" />
<glyph unicode="L" horiz-adv-x="542" d="M542 82q-4 -22 -6.5 -47t-3.5 -54q-7 -4 -31 -4q-18 0 -53 3.5l-72 7.5l-70 9q-32 4 -47 5l-10 1q-15 0 -43 -4.5t-73 -15.5q0 6 3 44l7 93l9 116l9 118l7 92q3 39 3 45q0 155 -81 155q-32 0 -82 -26l8 104q67 -1 325 -21q-34 -25 -61 -243q-11 -91 -17 -160.5t-6 -120.5 q0 -73 12 -74q16 -1 39 -3l54 -5l77 -7z" />
<glyph unicode="M" horiz-adv-x="878" d="M878 -23q-14 -3 -31 -3q-6 0 -16 0.5t-20.5 1.5t-21 1.5t-16.5 0.5q-24 0 -42 -6l-1 478q0 75 -25 75q-1 0 -11 -2q-2 -10 -14 -53l-30 -104l-36 -127l-38 -127l-29 -103q-12 -43 -14 -53l-44 -15q0 16 -15 61t-43 114l-67 159l-87 197q-25 -36 -30 -233v-255 q0 -49 -16 -49q-8 0 -25.5 4t-27.5 4q-23 0 -47 -9q-2 16 -3 33t-1 35q0 23 1.5 57.5t6.5 80.5q5 54 9 118.5t8.5 123t10 103t13.5 56.5q0 30 -17 42.5t-62 12.5q-53 0 -79 -23q1 13 1.5 28t0.5 34q0 18 -0.5 31.5t-1.5 23.5h137q5 0 16.5 1.5t24.5 3.5t25.5 3.5t18.5 1.5 q25 0 44 -4.5t33.5 -18t26 -37.5t22.5 -63q18 -62 36.5 -119t36.5 -101t34 -70t28 -26q4 0 16 26.5t27 68.5l34 92l34 97l30 85q14 38 21 55h117q14 2 29 14q19 -25 19 -151v-28l-2 -41v-41q-1 -19 -1 -28q0 -45 4.5 -99t14.5 -118q8 -54 17 -108t17 -108z" />
<glyph unicode="N" horiz-adv-x="703" d="M627 -114q-13 -4 -38 -4q-12 0 -33.5 1.5t-33.5 1.5q-19 0 -35 -3q-89 174 -255 404q-20 -14 -20 -118q0 -13 1.5 -44t4 -68t4 -74t1.5 -61v-35q-15 -2 -33 -3.5t-41 -1.5q-6 0 -13 0.5t-16 0.5h-35q15 72 15 294q0 19 -0.5 53t-1.5 75t-1.5 85.5t-1.5 86t-1.5 75 t-0.5 53.5q0 16 1 19q40 -22 82 -22q26 0 43 7l66 -128l65 -128q40 -73 79.5 -132t79.5 -107q12 15 12 80q0 30 -3 72t-7 88.5t-9 92.5l-9 82q-4 37 -7 60.5t-3 26.5q7 0 23 -3l32 -6l31 -6q15 -3 23 -3q18 0 35 11q-2 -67 -3 -145.5t-1 -169.5v-83v-77q0 -45 1 -103 q0 -6 -0.5 -12.5t-0.5 -14.5q0 -23 1 -52t3 -65z" />
<glyph unicode="O" horiz-adv-x="569" d="M544 318q0 -198 -29 -343q-32 -21 -136 -21q-8 0 -21 0.5t-27 0.5t-26 0.5t-17 0.5l-11 7q-5 0 -16.5 -0.5t-24.5 -0.5q-12 0 -23.5 -0.5t-17.5 -0.5q-86 0 -132 28q6 12 6 30q0 13 -5 38l-12 53l-12 52q-6 25 -6 37q0 60 4 121.5t12 127.5q20 173 58 232q13 21 237 21 q146 0 166 -9q7 -3 13 -34t10.5 -82t7 -117.5t2.5 -140.5zM452 283q0 63 -7 139.5t-21 167.5q-6 0 -29.5 1.5t-53 4t-59 4t-47.5 1.5q-51 0 -76.5 -65.5t-25.5 -183.5q0 -41 4 -85.5t11.5 -84.5t17.5 -70.5t22 -44.5q48 -6 126 -6q97 0 112 15q26 86 26 207z" />
<glyph unicode="P" horiz-adv-x="580" d="M580 477q0 -144 -78 -316q-5 -1 -14 -1h-15q-28 0 -73 4.5t-89 9.5t-77.5 9.5t-39.5 4.5q-39 -23 -39 -108q0 -66 18 -112q-4 -1 -8 -1h-9h-17q-8 0 -37 2t-81 6l6 53q5 45 11 107.5t13.5 133t13.5 132.5t11 106t6 52q-62 30 -88 30q-24 0 -43 -13q9 40 9 85v15v8 q0 4 -1 8l247 -18l345 -24q29 -85 29 -173zM486 467q0 51 -8 65q-60 11 -116 17t-113 6q-21 0 -33 -1.5t-19 -11.5t-9.5 -30.5t-4.5 -59.5q0 -6 -2.5 -21t-4.5 -33l-6 -36q-2 -17 -2 -26q0 -16 5 -29l248 -17q29 0 47 49t18 128z" />
<glyph unicode="Q" horiz-adv-x="585" d="M634 -106q-59 -56 -105 -68q-20 23 -49 64q-23 32 -34 49t-12 18q-13 -1 -28.5 -1.5t-34.5 -0.5q-247 0 -308 34q-21 150 -21 317q0 278 66 374q15 21 203 21q85 0 134 -2.5t66 -6.5q45 -12 45 -218q0 -140 -9 -258t-28 -221q32 -32 60.5 -57t54.5 -44zM447 313 q0 63 -6 131t-17 146l-39 3q-26 2 -55 3l-54 4q-27 1 -41 1q-51 0 -76.5 -65.5t-25.5 -183.5q0 -41 4 -85.5t11.5 -84.5t17.5 -70.5t22 -44.5q46 -6 100 -6q14 0 28.5 0.5t29.5 2.5q-68 67 -126 96l124 92q2 -55 85 -159q18 109 18 220z" />
<glyph unicode="R" horiz-adv-x="634" d="M634 -106q-58 -58 -105 -68q-266 336 -323 336q-54 0 -54 -121q0 -48 10 -89q-11 -2 -26 -3.5t-35 -1.5q-5 0 -81 3q45 364 45 591q0 104 -14 149q36 -7 83.5 -12.5t98.5 -9.5t102 -7t94 -5l73 -2q31 -1 42 -1q40 -89 40 -219q0 -136 -47 -283q-6 0 -20.5 2.5t-31.5 6 t-33 6t-26 2.5q-28 0 -47 -12l61 -68l64 -72q67 -76 130 -122zM200 563q-31 0 -31 -22q0 -9 1 -26.5t1 -26.5q0 -11 -3 -32l-4 -44l-6 -44q-2 -22 -2 -33q0 -41 10 -60q35 2 58.5 3t34.5 1q12 0 35.5 -2t50 -4.5t50.5 -4.5t36 -2q20 0 31.5 5.5t16.5 13.5q1 1 2.5 14.5 t3.5 34t4 45t3.5 46.5t2.5 38.5t1 21.5q0 26 -21 58q-24 6 -66.5 10t-86 6t-78.5 3t-44 1z" />
<glyph unicode="S" horiz-adv-x="596" d="M596 235q0 -112 -55 -171t-161 -59q-122 0 -300 36q1 39 1.5 61.5t2 35.5t5 19.5t9.5 11.5q103 -57 249 -57q87 0 141 27q7 32 7 62q0 113 -128 113q-13 0 -39 -2t-54 -4.5t-54 -4.5t-39 -2q-58 0 -90 17q-31 16 -31 145q0 66 11.5 115.5t42.5 82.5t85.5 49.5t140.5 16.5 q48 0 100 -6t112 -17q-1 -35 -2 -56t-2.5 -33t-4.5 -18t-9 -10q-72 39 -180 39q-112 0 -191 -40q-6 -35 -6 -63q0 -112 126 -112q13 0 39 2t54.5 5t54.5 5t39 2q55 0 91 -17q5 -3 11 -24.5t11.5 -49.5t9 -56t3.5 -43z" />
<glyph unicode="T" horiz-adv-x="604" d="M590 545q-56 19 -112 19q-20 0 -45.5 -3t-57.5 -8q-24 -201 -24 -404q0 -63 3 -119t8 -108q-20 3 -49.5 6.5t-69.5 7.5q5 45 7.5 97t2.5 112q0 11 -1 43l-4 73q-2 42 -5 89.5t-5 89.5l-4 72q-1 31 -1 41q-6 0 -20.5 0.5t-30.5 0.5q-15 0 -29.5 0.5t-20.5 0.5 q-64 0 -128 -12q8 22 8 43q0 31 -12 63q1 1 48 4t126.5 6t184.5 5.5t224 3.5q1 -6 3 -19.5t3.5 -27.5t2.5 -27.5t1 -19.5q0 -16 -3 -29z" />
<glyph unicode="U" horiz-adv-x="673" d="M34 651q4 -1 8 -1h8h17h24l33 2h34q16 1 24 1q67 0 113 -17q-23 -50 -45 -248q-21 -180 -21 -259q0 -42 26.5 -67.5t84.5 -28.5q63 -4 99.5 -6t50.5 -2q15 0 28.5 35t24.5 106t17.5 179.5t6.5 254.5q32 -10 52.5 -11.5t32 -5t15.5 -14t4 -38.5q0 -6 -2 -31l-5 -64l-7 -86 l-8 -98q-4 -50 -9 -100l-8 -91l-6 -73l-3 -44q0 -7 -19 -10.5t-44.5 -5.5t-51 -2.5t-38.5 -0.5q-70 0 -140 6q-14 1 -41 8l-57 15l-56 16q-27 8 -40 10q-13 13 -13 98q0 34 2 81t5 98l6 101l7 92l5 66q2 26 2 28q-25 5 -39 5q-52 0 -86 -30q17 79 17 95q0 18 -8 37z" />
<glyph unicode="V" horiz-adv-x="740" d="M740 659q-32 -70 -64 -157.5t-64 -193.5q-3 -11 -12 -38l-18 -64l-24 -78l-22 -76l-20 -65l-11 -39h-91q-13 48 -37 114t-52 136l-57 138l-52 122l-38 86l-15 32q-77 0 -141 -31l-10 47l-12 64q12 0 43 3t69 6l74 6q37 3 61 3h23q-1 -4 -1.5 -8t-0.5 -9q0 -65 73 -229 l52 -114q27 -57 58 -115q104 244 152 489q8 -1 42.5 -8t94.5 -21z" />
<glyph unicode="W" horiz-adv-x="976" d="M976 674q-65 -140 -129 -351l-11 -39l-20 -64l-22 -76l-24 -78l-18 -64q-9 -28 -12 -39h-90q-16 55 -36 114l-42 125q-19 -82 -36 -145t-31 -109h-91q-13 48 -37 114t-52 136l-57 138l-52 122l-38 86l-15 32q-77 0 -141 -31l-10 47l-12 64q13 0 44.5 3t69.5 6l74 6 q36 3 59 3h23q-1 -4 -1.5 -8t-0.5 -9q0 -65 73 -229l52 -114q27 -57 58 -115q33 76 57 171l-46 120l-63 171q-1 0 11.5 3t31 6.5t38.5 6.5t34 3q5 0 10.5 -0.5t10.5 -1.5q-1 -5 -1.5 -10t-0.5 -10q0 -30 17 -95l23 125q8 -1 42 -8t95 -21q-53 -114 -96 -282q40 -102 72 -163 q104 244 152 489q8 -1 42.5 -8t95.5 -21z" />
<glyph unicode="X" horiz-adv-x="546" d="M532 -21q-23 -6 -57.5 -13.5t-80.5 -15.5q-8 42 -34 104.5t-69 148.5l-30 -49l-28 -49l-24 -41q-12 -21 -22.5 -42t-18.5 -39.5t-12 -33.5q-3 0 -13.5 0.5t-24.5 0.5l-26 2h-21q-16 0 -29.5 -1t-25.5 -3q10 23 28 57l42 72l46 77l44 72l35 58q15 25 20 35q-5 9 -20 33 l-36 58l-45 72l-46 78l-40 72t-28 58q24 -3 55 -3q7 0 20.5 0.5t26.5 0.5q14 0 24.5 0.5t13.5 0.5q7 -20 19.5 -47l26.5 -55l30 -55l28 -50l21.5 -34t9.5 -13l49 98q18 37 28.5 62t15.5 45t10 48l40 -8l98 -21l-54 -105l-126 -235l76 -141z" />
<glyph unicode="Y" horiz-adv-x="601" d="M601 679q-7 -12 -23 -35l-38 -52l-46 -64l-48 -65l-40 -60.5t-27 -48.5q-6 -14 -13.5 -52t-14.5 -84t-11.5 -91t-4.5 -73q0 -36 6 -52q-51 3 -80 3q-55 0 -75 -10q6 12 14 37.5t16 57.5l16 70q9 36 15 69.5t10 61.5t4 44q0 15 -12.5 44t-31.5 66t-43 78l-44 80l-39 72 q-17 33 -24 53q13 -4 48 -6.5t93 -4.5q6 -25 24 -64t38 -77l36 -68q17 -29 20 -35l45 70l43 67q19 33 33 60.5t19 47.5q10 -2 135 -39z" />
<glyph unicode="Z" horiz-adv-x="547" d="M547 682q-18 -38 -61 -112l-114 -188q-116 -184 -156 -310q47 9 110.5 11.5t160.5 2.5l-22 -144q-69 8 -140 12.5t-144 4.5q-54 0 -97.5 -3t-77.5 -8q17 37 57 111.5t106 186.5q54 94 89 169.5t54 138.5h-11q-14 0 -41 2l-58 4q-30 2 -57 4t-40 2q-54 0 -99 -12 q17 48 17 74q0 34 -16 65q101 -32 278 -32q154 0 262 21z" />
<glyph unicode="[" horiz-adv-x="282" d="M40 -104q2 61 4 136l2 154q2 81 2.5 165.5t0.5 166.5q0 57 -0.5 109t-1.5 101q21 -2 49 -2q10 -1 20 -1q19 0 38 1q30 1 56.5 2.5t43.5 3.5q4 -26 4 -56q0 -14 -1 -30q-17 1 -38 2l-41 4q-19 1 -36 2t-26 1q-1 -28 -2 -77t-2.5 -110.5t-2.5 -130.5l-2 -136 q-1 -67 -1.5 -127.5t-0.5 -104.5h12q13 0 27 1q21 2 41.5 4.5t37 5t24.5 2.5q4 -20 5 -42v-15q0 -14 -1 -29q-11 1 -23 1.5t-26 0.5q-40 0 -85 -1t-77 -1z" />
<glyph unicode="\" horiz-adv-x="396" d="M393 -52q-26 3 -59 3q-7 0 -27 -0.5t-54 -1.5l-56 179l-56 180q-34 106 -67 192.5t-67 158.5q23 6 57.5 13.5t80.5 15.5q29 -151 90.5 -335t157.5 -405z" />
<glyph unicode="]" horiz-adv-x="282" d="M241 730q-2 -62 -3 -136l-4 -155q-1 -81 -1.5 -165.5t-0.5 -166.5q0 -57 0.5 -108.5t1.5 -100.5q-11 1 -23.5 1.5t-26.5 0.5q-21 0 -43 -0.5t-43 -1.5t-39.5 -2t-31.5 -2q-4 26 -4 56q0 14 1 30q17 -2 38 -4l40 -2q20 -2 37 -2.5t26 -0.5q1 27 2 76.5t2.5 111t2.5 130.5 l2 136q1 67 1.5 127.5t0.5 104.5h-12q-13 0 -28 -1q-21 -2 -41 -4.5t-36.5 -5t-24.5 -2.5q-4 20 -5 42v15q0 14 1 29q11 -1 22.5 -1.5t25.5 -0.5q42 0 86 1t77 1z" />
<glyph unicode="^" d="M659 12q-5 -22 -41 -48l-84 -61q-11 12 -22 39.5t-21 57.5l-19 56q-9 26 -18 37q-54 8 -89.5 11.5t-58.5 3.5q-171 0 -171 -148v-11q0 -11 1 -12l-55 17q-33 11 -79 23l64 161l65 161q38 97 62.5 179t37.5 152q39 3 71 3q94 0 115 -23q0 -77 96 -312q97 -240 146 -286z M324 483q-99 -191 -100 -263h169q2 11 3.5 18t1.5 11q0 13 -10 44l-21 67l-25 70q-12 34 -18 53z" />
<glyph unicode="_" horiz-adv-x="670" d="M696 -60q-26 -92 -26 -133q-125 14 -230.5 21.5t-196.5 7.5q-105 0 -201 -9q0 96 -9 147q135 -17 281 -26t309 -9q18 0 36 0.5t37 0.5z" />
<glyph unicode="`" horiz-adv-x="516" d="M339 720q-45 27 -89.5 48t-92.5 35q20 26 25 68q49 -28 95 -49t91 -37q-10 -15 -17 -31.5t-12 -33.5z" />
<glyph unicode="a" horiz-adv-x="584" d="M583 32q-10 -5 -29.5 -11t-39.5 -11l-38 -10q-18 -4 -24 -6q-7 23 -13.5 65t-29.5 103q-63 1 -120 3t-112 7q-11 -17 -20 -44t-16 -55t-11.5 -51t-5.5 -32q-57 19 -82 19q-17 0 -25 -4q1 6 7 34l16 70l20 94l24 106l24 105l22 94l16 70q7 27 9 33q6 23 15 51l19 62 q57 -6 100.5 -12t74.5 -11q0 -51 4 -96t14 -85t26 -84l38 -94q1 -3 11 -26l25 -58l31 -72l32 -72l25 -57q11 -23 13 -25zM263 572q-9 -25 -18 -58t-17.5 -69.5t-16.5 -76.5l-16 -77q15 -21 58 -21q33 0 53.5 2.5t32.5 8.5t16.5 16t4.5 25q0 17 -8.5 40.5t-21.5 53.5l-32 70 q-17 38 -35 86z" />
<glyph unicode="b" horiz-adv-x="619" d="M615 530q0 -22 -3 -50t-10.5 -57t-20 -56.5t-31.5 -48.5q15 -19 26 -43t18 -49.5t10.5 -51.5t3.5 -50q0 -140 -102 -200q-11 0 -36 1.5t-58 4.5t-70.5 5.5t-73.5 5.5t-68 4.5t-53 1.5q-81 0 -107 -14q-1 7 -1 15v15v32q0 72 4 164t9 189t9 192t4 173q14 -1 53 -3l92 -6 q51 -4 109 -8l109 -6q52 -3 91 -5t52 -2q44 -68 44 -153zM504 551q-35 10 -84.5 17.5t-97 13t-85 8t-46.5 4.5q-21 -26 -21 -146v-67q32 -17 198 -17q45 0 72 1.5t38 3.5q7 3 12 18t7.5 39.5t4 56.5t2.5 68zM205 283q-22 0 -31.5 -5.5t-12.5 -27.5q-3 -20 -3 -56v-13 q1 -9 1 -20q0 -42 -2 -107q67 -17 132 -24t135 -9q68 0 68 216q0 14 -32 23t-77.5 14t-94.5 7t-83 2z" />
<glyph unicode="c" horiz-adv-x="564" d="M564 682q0 -75 -20 -118q-73 43 -189 43q-106 0 -182 -36q-10 -49 -14.5 -123.5t-4.5 -174.5q0 -52 4.5 -82t17 -45t33.5 -19t54 -4q10 0 32 1t46 3q25 2 66.5 3.5t107.5 7.5q15 -34 17 -118q-36 0 -73.5 -5t-66.5 -5q-21 0 -50.5 1t-61.5 3l-65 2q-32 2 -59 4l-44 2 q-18 1 -21 1q-13 0 -19 68.5t-6 186.5q0 176 6 254q13 177 267 177q100 0 225 -27z" />
<glyph unicode="d" horiz-adv-x="592" d="M576 241q0 -23 -12.5 -83.5t-38.5 -157.5q-30 -12 -51.5 -15.5t-49.5 -5.5q-11 -1 -57.5 -1.5t-131.5 -0.5q-35 0 -76 0.5t-89 0.5q-38 0 -38 41q0 7 2 19t5 25t5 24.5t2 17.5q10 157 15 267t5 182q0 98 -12 134q151 -28 461 -48q1 -12 6 -40l11 -64l15 -79 q8 -42 14.5 -82t10.5 -75.5t4 -58.5zM469 216q0 133 -45 330q-168 33 -227 33q-16 0 -27 -22.5t-18 -78.5t-10.5 -151t-3.5 -239l16 -12q7 0 25.5 -1t40.5 -2.5t42.5 -2.5t32.5 -1q49 0 82 8t53.5 26t29.5 46t9 67z" />
<glyph unicode="e" horiz-adv-x="454" d="M454 408q0 -54 -10 -98q-3 -4 -26 -5.5t-56.5 -3.5t-71.5 -4t-70.5 -5.5t-54 -9t-21.5 -14.5q0 -56 3 -91.5t11 -55t21 -26.5t34 -7q3 0 28 3t60 6.5t74.5 7t71.5 4.5q-1 -7 -1.5 -14t-0.5 -14v-25v-25q0 -6 0.5 -12t1.5 -11q-5 -4 -29 -6.5t-61 -5t-84.5 -4t-99.5 -2.5 q-17 -1 -47.5 -8.5t-75.5 -23.5q-2 79 -3.5 144t-3.5 123t-4.5 111t-7.5 108t-12.5 115t-18.5 131q21 -2 43.5 -3t46.5 -1q20 0 59.5 1.5t83.5 4t83.5 4t59.5 1.5q19 0 37 -0.5t35 -1.5q-3 -15 -4 -30t-1 -31v-15q0 -10 1 -15q-27 0 -62 -2l-79 -6q-56 -4 -89.5 -6 t-51.5 -10t-23.5 -27.5t-5.5 -58.5q0 -70 30 -97q-1 0 14.5 1.5t40.5 4.5t57 5.5t64.5 5.5t62.5 4.5t52 1.5v-12z" />
<glyph unicode="f" horiz-adv-x="529" d="M529 635q-11 -32 -15 -90q-24 3 -66 5l-86 6q-44 2 -80.5 3.5t-48.5 2.5q-42 -27 -42 -115q0 -51 19 -73q30 0 68.5 -0.5t78.5 -1.5t78 -3.5t67 -6.5q-23 -42 -24 -109q-1 -1 -16 -1q-49 0 -81.5 1.5t-59.5 3.5t-54 5t-66 6q-26 0 -31.5 -49.5t-5.5 -134.5q0 -43 1 -72 t6 -43l-10 1q-31 0 -116 -18q1 15 5 48l8 76l9 90q5 48 9 93.5t7 84t3 62.5q0 14 -1 42l-2 57q-1 30 -2 57t-1 41q0 23 1 43t3 39q22 -5 58.5 -10t79.5 -9.5t89.5 -8.5t88.5 -8l76 -7q34 -4 53 -7z" />
<glyph unicode="g" horiz-adv-x="543" d="M539 233q0 -67 -9 -185q-11 -3 -29 -7t-49.5 -7t-79 -5.5t-117.5 -2.5q-32 0 -73 0.5t-92 1.5q-9 4 -17 47.5t-14.5 114t-10.5 160t-4 185.5q0 192 299 192q43 0 88 -4.5t96 -12.5q0 -36 -3 -64.5t-11 -53.5q-66 33 -163 33q-122 0 -207 -46q-6 -47 -6 -170 q0 -199 17 -235q16 -33 69 -33q25 0 63 2t74 9t62 20t26 34q0 36 -1.5 58t-10.5 33.5t-27.5 15.5t-52.5 4q-89 0 -147 -16q0 84 11 109h121q51 0 94.5 6.5t81.5 17.5q22 -72 22 -201z" />
<glyph unicode="h" horiz-adv-x="617" d="M607 640q-41 -156 -41 -340v-240q1 -52 4.5 -88.5t3.5 -55.5q0 -13 -5 -17.5t-15 -4.5q-20 0 -39 4t-34 12.5t-24.5 20.5t-9.5 28q0 13 3.5 36.5t7 49.5t7 49t3.5 35q0 101 -80 101h-211q-7 -60 -10 -107.5t-3 -82.5q0 -63 9 -103q-32 -1 -57 -1h-42h-28q-11 0 -15 -1 q7 26 12.5 73t10.5 117q12 163 12 330q0 156 -12 212q135 3 158 9q-2 -36 -7 -72t-10.5 -71t-9.5 -67.5t-4 -61.5q0 -26 9 -41t33 -20q23 -4 41.5 -8t38 -7t42 -5t53.5 -2t48 7.5t24.5 21t8.5 32t1 40.5q0 2 -0.5 18.5t-0.5 36.5q0 21 -0.5 40.5t-0.5 27.5q0 73 17 115 q35 -8 63.5 -13t48.5 -7z" />
<glyph unicode="i" horiz-adv-x="176" d="M159 15q-23 2 -46.5 3.5t-47.5 1.5h-20q-3 8 -6.5 46t-6.5 93t-6 119.5t-5 125.5t-3.5 111.5t-1.5 76.5q0 34 11.5 51t27.5 24t33 8t29 3q-3 -45 -3 -120q0 -129 6.5 -228.5t15 -168t15.5 -105.5t8 -41z" />
<glyph unicode="j" horiz-adv-x="593" d="M576 558q0 -346 -72 -587q-32 -7 -74 -7q-17 0 -50 1t-73.5 4.5t-83 8.5t-77 13t-57.5 19t-24 25l-15 144l113 -10q7 -56 23 -78q21 -3 60.5 -6.5t79.5 -3.5q42 0 73 6t37 21q46 142 46 305q0 189 -93 197l8 100q149 -16 166 -24q13 -7 13 -128z" />
<glyph unicode="k" horiz-adv-x="605" d="M605 -103q-12 -10 -49.5 -24t-80.5 -28l-27 86l-32 101q-17 51 -35.5 101t-37 89t-37.5 63t-36 24q-15 0 -35 -15.5t-37.5 -39t-29.5 -50t-12 -48.5q0 -72 19 -145q-33 -6 -142 -18l-17 15q9 3 16 32.5t11.5 87t7 144.5t2.5 207q0 52 -1.5 106.5t-1.5 117.5q39 -1 130 -6 q-4 -51 -8 -127l-8 -178q43 6 185 154q137 143 137 184l8 2q7 0 18.5 -8t25.5 -21.5t30 -30.5l33 -36q0 -11 -28 -37t-88 -71q-121 -91 -121 -123q0 -38 105 -243l68 -132z" />
<glyph unicode="l" horiz-adv-x="446" d="M446 28q-13 -10 -107 -10h-33l-46 2h-46q-22 1 -32 1q-39 0 -133 -33q-1 24 -2 60t-2 76l-2 82q-1 42 -1.5 77.5t-1 61t-0.5 34.5q-2 21 -6 67t-10 97.5t-12.5 100.5t-12.5 76q11 -1 22.5 -1.5t22.5 -0.5q12 0 32 1t41 2.5t39 3t25 1.5q-36 -32 -36 -339q0 -136 7.5 -200 t19.5 -64q112 0 274 6l-2 -22q-1 -11 -1 -23q0 -28 3 -56z" />
<glyph unicode="m" horiz-adv-x="794" d="M779 -57q-8 1 -16.5 1.5t-16.5 0.5h-31q-22 0 -42.5 -1t-40.5 -3q0 21 0.5 63t1.5 92.5t1.5 105t1.5 101.5t1.5 81t0.5 44q0 67 -24 67q-6 0 -10 -3q-2 -10 -15 -53l-32 -103l-39 -126l-39 -128l-32 -102q-13 -42 -15 -52l-43 -14q-1 18 -16 62.5t-42 112.5l-63 159 l-82 201q-27 -37 -30 -178q-2 -72 -3.5 -115t-1.5 -60q0 -54 -4.5 -96.5t-15.5 -87.5q-9 0 -27 4.5t-28 4.5q-17 0 -46 -8v38q0 13 1 47l2 82l4.5 104.5t4.5 117t5 118.5l4 107l4 86q1 37 2 54q28 5 50.5 8t41.5 3q27 0 46 -5t33.5 -17.5t25 -35t20.5 -58.5 q17 -62 35.5 -121.5t36 -105.5t33 -74t27.5 -28q4 0 16.5 26t28.5 67l34 90l36 97l32 85q14 39 22 57l147 12q16 -22 16 -125q0 -12 -1 -37t-1.5 -53t-1.5 -53.5t-1 -37.5q0 -73 12.5 -174.5t32.5 -243.5z" />
<glyph unicode="n" horiz-adv-x="668" d="M637 -21q0 -33 -96 -39l-73 88l-92 115l-59 83q-28 40 -46 74q-28 52 -60.5 87.5t-69.5 55.5q-13 -25 -13 -77v-49q0 -11 0.5 -21.5t1.5 -20.5q1 -14 3.5 -41.5t6.5 -62.5l7 -73l7 -72q4 -34 6.5 -60.5t3.5 -38.5q-17 2 -34 3.5t-35 1.5q-28 0 -58 -3q0 15 -1 52.5 t-2.5 89t-3.5 112.5l-4 123l-4 122l-5 109q-2 49 -3.5 82t-2.5 43q28 5 54.5 7.5t51.5 2.5h13q14 -29 31 -58l36 -57q3 -5 19 -27l35 -48l37 -50l23 -32q37 -49 79 -94.5t90 -90.5l21 6q0 55 -7.5 124.5t-15.5 136.5l-16 122q-8 55 -8 84q28 4 53.5 6t48.5 2h22 q7 -18 11.5 -54t8.5 -96t8.5 -147.5t11.5 -209.5q4 -66 8.5 -118t10.5 -92z" />
<glyph unicode="o" horiz-adv-x="658" d="M649 459q0 -75 -6 -148t-17 -148q0 -3 -5.5 -20t-12 -40t-12 -48.5t-5.5 -44.5q0 -13 1 -16q-80 -34 -196 -34q-170 0 -300 67q-33 226 -33 327q0 216 113 386q21 1 42 1.5t42 0.5q69 0 128 -3.5t113 -8.5q10 -1 27 -6l36 -8l34 -9.5t24 -5.5q27 -99 27 -242zM528 488 q0 102 -10 131q-155 27 -199 27q-20 0 -38.5 -2t-37.5 -6q-70 -185 -70 -344q0 -137 66 -189q69 -7 107 -10.5t48 -3.5q61 0 82 18q10 8 19 46t16.5 92.5t12 118t4.5 122.5z" />
<glyph unicode="p" horiz-adv-x="561" d="M555 448q0 -151 -63 -311q-30 -3 -65 -3q-20 0 -56 2l-73 4q-38 2 -70.5 4.5t-44.5 3.5q-34 -22 -34 -81t25 -110q-29 -3 -63 -3q-5 1 -10 1h-12h-28h-18q-10 0 -21 1q0 8 1.5 40.5t3.5 80.5t5 107.5t6.5 121t6.5 121.5t5 109l4 82q1 33 1 42q206 0 320 -0.5t140 -1.5 q40 -92 40 -210zM461 436q0 83 -12 101q-40 5 -91 7.5t-114 2.5q-66 0 -78 -21q0 -1 -2.5 -20t-6 -49t-6 -68t-2.5 -77q0 -36 7 -51h248q27 0 42 48t15 127z" />
<glyph unicode="q" horiz-adv-x="568" d="M617 -64q-56 -59 -103 -72q-20 20 -51 62l-35 48q-12 16 -13 17q-26 -2 -60 -3.5t-77 -1.5q-187 0 -236 25q-33 187 -33 379q0 224 55 312q18 30 305 30q80 0 97 -3q54 -11 54 -297q0 -126 -5.5 -225t-16.5 -175q32 -29 61.5 -53t57.5 -43zM416 299q0 146 -34 325h-16 q-11 0 -32 1t-44 1.5t-43.5 1.5t-30.5 1q-30 0 -52 -11t-36.5 -37t-21.5 -68.5t-7 -106.5q0 -42 5.5 -91t14.5 -93.5t21 -79.5t24 -49q34 -3 69 -3q21 0 43.5 1t46.5 3q-69 66 -130 93l121 96q3 -56 91 -156q5 45 8 87t3 85z" />
<glyph unicode="r" horiz-adv-x="565" d="M555 495q0 -51 -6 -117t-17 -147h-47q-51 0 -81.5 -2.5t-30.5 -13.5q0 -13 10 -40t26 -60.5t35.5 -68.5t39.5 -64.5t37.5 -49t29.5 -21.5q0 -36 -134 -89l-57 160q-27 76 -54 134t-55 92.5t-60 34.5q-14 0 -23 -4t-14 -15.5t-7 -31.5t-2 -51q0 -134 36 -147 q-12 -15 -49 -15q-26 0 -52 2t-51 3l3 52q3 38 6 87.5t6 104.5l6 106q3 50 4.5 89t1.5 56q0 138 -18 251q22 3 64 3q34 0 79 -2t94 -5t98.5 -7t94.5 -9q87 -2 87 -215zM468 453q0 94 -18 154q-35 5 -89.5 9t-126.5 4q-34 0 -57 -2t-36 -5v-254q29 -9 48 -14t45.5 -7 t68.5 -2.5t116 -0.5q49 0 49 118z" />
<glyph unicode="s" horiz-adv-x="586" d="M582 310q0 -71 -10 -124.5t-38.5 -89.5t-80.5 -54t-135 -18q-100 0 -236 32q3 35 4.5 55.5t3 32.5t5 17.5t9.5 10.5q76 -45 197 -45q99 0 173 33q9 40 9 70q0 57 -31.5 83t-106.5 26q-10 0 -31.5 -1t-45.5 -2.5t-46 -2.5t-32 -1q-71 0 -106 20q-5 3 -10 21.5t-9.5 43 t-7.5 50.5t-3 43q0 118 54 178t157 60q121 0 312 -46q-1 -22 -3 -43t-5 -38.5t-6.5 -29.5t-8.5 -16q-110 65 -264 65q-78 0 -125 -22q-9 -39 -9 -69q0 -57 32.5 -83.5t107.5 -26.5q10 0 31.5 1t45 2.5t45 2.5t32.5 1q43 0 69 -4.5t40 -19t18.5 -41.5t4.5 -71z" />
<glyph unicode="t" horiz-adv-x="575" d="M566 657q5 -28 6.5 -55.5t1.5 -42.5q0 -16 -3 -26q-5 1 -23 6l-41 11q-23 6 -45.5 11t-35.5 5q-14 0 -29.5 -2.5t-29.5 -7.5q-35 -12 -39 -147q0 -8 -0.5 -45t-1 -88.5t-1.5 -111t-1.5 -112t-1 -90.5t-0.5 -48q-26 6 -68 11.5t-91 5.5q5 20 10.5 63t12.5 112l20 208 l11 130.5t5.5 74t1.5 38.5q-33 11 -56 11q-30 0 -73.5 -8t-88.5 -23q4 30 5.5 58.5t1.5 56.5q34 2 71.5 3.5t79.5 1.5q34 0 67.5 -0.5t65 -1.5t59 -1.5t48.5 -0.5q49 0 89 1.5t73 2.5z" />
<glyph unicode="u" horiz-adv-x="576" d="M553 -35q-74 -16 -174 -16q-85 0 -144.5 5t-88.5 11q-25 5 -42 7.5t-28.5 8.5t-17.5 18.5t-9 36.5t-3.5 63t-0.5 98q0 16 0.5 44t0.5 60q0 33 1 68.5t1 67.5q0 33 0.5 60t0.5 42q0 42 -1.5 70.5t-3.5 43.5q34 8 61 8q39 0 84 -14q-3 -10 -7.5 -39t-9 -70t-8.5 -90 t-7.5 -97t-5.5 -92t-2 -75q0 -50 4.5 -78t27.5 -41.5t71.5 -16.5t137.5 -3q81 0 81 310q0 17 -1.5 53t-3 77t-2.5 79.5t-1 60.5q33 -2 54 -2.5t33 -5t16.5 -16t4.5 -35.5q0 -5 -1 -44l-2 -96l-4.5 -127.5t-4.5 -134.5t-3.5 -118.5t-2.5 -80.5z" />
<glyph unicode="v" horiz-adv-x="675" d="M675 636q-36 -72 -73 -157.5t-73 -188.5l-13 -38l-22 -64l-26 -75l-26 -75l-23 -64q-10 -27 -14 -37h-91q-17 69 -47 158.5t-75 201.5l-85 220q-33 88 -48 137q2 1 13.5 3.5t27.5 5.5t34.5 5t33.5 2q13 0 27 -3q-1 -5 -1.5 -10t-0.5 -10q0 -58 45 -183.5t128 -297.5 q66 139 107.5 270t65.5 234q10 -2 43 -10t93 -24z" />
<glyph unicode="w" horiz-adv-x="1071" d="M1071 646q-1 -3 -13 -30l-28 -68l-40 -94l-42 -103l-39 -99q-18 -48 -29 -82q-22 -67 -35.5 -128t-20.5 -118l-129 10l-50 196l-70 295q-48 -96 -93 -249l-56 -188q-19 -63 -20 -66h-91q-17 68 -48.5 157.5t-79.5 201.5l-89 217q-35 88 -51 137q10 3 25 6l31 6 q16 3 31 4.5t25 1.5q6 0 12 -0.5t12 -1.5q-1 -5 -1.5 -9.5t-0.5 -9.5q0 -113 175 -459q127 279 170 486q10 -1 44 -9l93 -22q-13 -19 -13 -59q0 -81 39 -208l32 -103l33 -103q37 22 106 236q25 78 44 146t32 126q30 -2 63.5 -6t71.5 -11z" />
<glyph unicode="x" horiz-adv-x="554" d="M551 31q-22 -7 -56 -15.5t-80 -18.5q-19 80 -111 250l-8 -13l-20 -36l-26 -50l-29 -56q-14 -29 -25.5 -56t-17.5 -48h-57q-51 0 -84 -6q10 24 27 60l39 74l43 78l41 74l33 58l19 34q-5 9 -21 32l-38 56l-46 71l-48 75l-44 72q-20 34 -31 58q8 -1 15 -1.5t15 -0.5h8l103 6 q8 -21 21.5 -48t29.5 -55l33 -55l30 -46l22 -34l8 -12l44 98q17 38 26 64t13.5 46.5t9.5 48.5q5 -1 40 -7t99 -18l-50 -106l-117 -240l80 -138z" />
<glyph unicode="y" horiz-adv-x="537" d="M537 642q1 1 1 2l-22 -35l-59 -91l-81 -130l-89 -148l-83 -148q-39 -72 -63 -128q-51 6 -84 8.5t-50 2.5h-7q91 168 207 345q-4 9 -17 34l-30 60l-38 76l-39 81q-19 40 -34.5 76t-23.5 61q11 -2 46 -5.5t94 -7.5q4 -21 14 -49t23 -58l25 -58q13 -29 25 -52l18 -36 q7 -13 7 -12q49 79 80 142t45 111q5 -1 38 -11z" />
<glyph unicode="z" horiz-adv-x="572" d="M572 690q-16 -38 -56 -111l-104 -185q-106 -180 -140 -305q29 8 74.5 12t89.5 7q26 2 52 3l55 2l-17 -145q-98 9 -208 9q-81 0 -143.5 -4.5t-107.5 -14.5q28 73 147 294q96 178 127 302q-4 -1 -8 -1h-8h-16q-11 0 -33 1l-44 2l-46 2q-21 1 -31 1q-70 0 -119 -16 q14 44 14 70q0 34 -18 69q79 -24 221 -24q180 0 319 32z" />
<glyph unicode="{" horiz-adv-x="449" d="M371 750q-9 -26 -9 -47q0 -18 7 -40h-14q-23 0 -43 -5q-27 -6 -43 -21q-17 -21 -27 -53.5t-10 -80.5q-3 -36 -7.5 -68t-16.5 -58.5t-34 -46.5t-60 -31q37 -12 59 -34t34 -51t15.5 -64.5t3.5 -75.5q0 -48 13 -80t29 -53q17 -17 44 -23q19 -4 42 -4h15q-6 -18 -6 -32v-7 q2 -16 10 -39h-14q-49 0 -89 18q-45 22 -72 53q-23 29 -35.5 73t-15.5 101q1 8 1 16q0 21 -4 43q-6 29 -19.5 52t-36.5 36q-19 12 -44 12q-6 0 -12 -1l4 55q1 7 1 14q0 21 -6 39q8 -1 15 -1q23 0 40 10q23 13 36.5 36.5t19.5 53.5q4 24 4 49v9q3 57 14 101t37 73 q27 30 73 52q41 20 88 20h13z" />
<glyph unicode="|" horiz-adv-x="154" d="M94 675q-3 -29 -5 -70.5t-3.5 -88.5t-2 -95.5t-0.5 -90.5q0 -49 1 -115.5t2.5 -133.5t4.5 -126t7 -93q-14 5 -26 6q-3 1 -7 1q-11 0 -29 -3q3 27 5.5 78.5t4 111.5t2.5 120.5t1 104.5q0 43 -0.5 95.5t-2 106t-3.5 104t-5 89.5q19 5 30 5q1 0 2 -1q10 0 24 -5z" />
<glyph unicode="}" horiz-adv-x="449" d="M47 750h13q47 0 88 -20q46 -22 73 -52q26 -29 37 -73t14 -101v-10q0 -24 4 -48q5 -30 18.5 -53.5t35.5 -36.5q18 -10 42 -10q7 0 15 1q-7 -19 -7 -44v-10q2 -31 6 -54q-6 1 -12 1q-25 0 -44 -12q-23 -13 -36.5 -36t-19.5 -52q-4 -22 -4 -43q0 -8 1 -16q-3 -57 -15.5 -101 t-35.5 -73q-27 -31 -72 -53q-40 -18 -89 -18h-14q8 23 10 39v7q0 14 -6 32h15q23 0 42 4q27 6 44 23q16 21 29 53t13 80q0 40 3.5 75.5t15.5 64.5t34 51t59 34q-38 11 -60 31t-34 46.5t-16.5 58.5t-7.5 68q0 48 -10 80.5t-27 53.5q-16 15 -43 21q-20 5 -43 5h-14q7 22 7 40 q0 21 -9 47z" />
<glyph unicode="~" horiz-adv-x="1414" d="M62 293h1v47h67v28h-18v88h18v31h-18v37h439v-46q-7 13 -24 13q-46 0 -46 -77q0 -76 48 -76q15 0 31 19v-17h24v184h374v-26h34v26h360v-524h-1290v293zM938 340v94q0 54 -47 54q-24 0 -31 -24q-9 24 -28 24q-17 0 -27 -24v23h-32v-119h-19v-28h70v28h-19v61q0 23 19 23 q15 0 15 -23v-89h51v28h-19v61q0 22 19 22q15 0 15 -22v-89h33zM986 267h-56v-189h32v122h3l9 -122h58v189h-32v-122h-3zM480 267v-189h79l11 21v62l-8 14v3l8 14v55l-11 20h-79zM826 247v-148l10 -21h67l12 21v148l-11 20h-68zM271 267v-189h38v83h11v-83h41v76l-15 21v3 l15 20v49l-11 20h-79zM256 293h33v56q7 -12 24 -12q46 0 46 76t-48 76q-14 0 -31 -20v18h-24v-194zM475 412q0 78 -55 78q-54 0 -54 -78q0 -76 54 -76q55 0 55 76zM1184 209h38v38l-10 20h-66l-11 -20v-66l12 -20l37 -9v-38h-10v28h-39v-43l11 -21h65l11 21v72l-13 21l-35 8 v33h10v-24zM256 78v69l-26 120h-41l-23 -120v-69h37v36h13v-36h40zM464 78v69l-24 120h-41l-23 -120v-69h38v36h12v-36h38zM169 293h21q55 6 55 71v123h-33v-91q0 -26 -20 -26q-19 0 -19 26v91h-32v-85q0 -64 46 -64q14 0 25 8q0 -23 -28 -23h-15v-30zM678 159h26v33h-26v35 h26v40h-64v-189h64v42h-26v39zM786 156h24v33h-24v38h24v40h-63v-189h39v78zM1064 227v-149h39v149h21v40h-81v-40h21zM685 487h-15v-23q-11 26 -33 26q-43 0 -43 -43q0 -27 22 -36q-23 -9 -23 -33q1 -42 45 -42q22 0 34.5 13t12.5 40h-15q-3 -19 -25 -19q-20 0 -20 14 q0 18 20 18h10v18h-10q-20 0 -20 17q0 16 20 16q17 0 25 -20h15v54zM1096 485h-16v-21q-12 26 -30 26q-50 0 -50 -78q0 -75 51 -75q36 0 45 58h-16q-3 -23 -25 -23q-23 0 -23 40q0 41 23 41t25 -27h16v59zM151 120h-22v147h-38v-189h60v42zM625 78v189h-39v-189h39zM740 368 h-14v65q0 20 14 20q6 0 12 -6l11 33q-8 7 -17 8q-21 0 -31 -24v23h-19v-147h44v28zM943 487v-31h15v-116h34v147h-49zM286 437q6 15 21 15q21 0 21 -38q0 -43 -22 -43q-14 0 -20 16v50zM442 412q0 -40 -22 -40q-21 0 -21 40q0 41 21 41q22 0 22 -41zM553 389q-6 -14 -20 -14 q-21 0 -21 38q0 43 22 43q13 0 19 -16v-51zM63 368v88h19v-88h-19zM864 114v119h11v-119h-11zM63 487v37h19v-37h-19zM203 142v19l6 50h2l5 -50v-19h-13zM414 142v19l5 50h3l4 -50v-19h-12zM519 161h11v-47h-11v47zM519 192v41h11v-41h-11zM309 192v41h11v-41h-11z" />
<glyph unicode="&#xa1;" horiz-adv-x="263" d="M47 -65q0 29 -0.5 61.5t-0.5 74.5q0 134 1 249t7 212l35 4q15 1 27 1q10 0 19 -1t18 -4q-1 -48 -1.5 -88.5t-0.5 -76.5q0 -88 2.5 -144.5t6.5 -91.5q3 -26 6 -47l6 -42l8 -44l9 -52q0 -14 -61 -14q-74 0 -81 3zM42 662q0 12 7.5 22.5t19 18.5t24.5 12.5t25 4.5 q56 0 56 -76q0 -53 -51 -53q-15 0 -29.5 5.5t-26 15.5t-18.5 22.5t-7 27.5z" />
<glyph unicode="&#xa2;" horiz-adv-x="508" d="M333 681l-9 -54q-1 -2 -1 -6q0 -3 -1 -4q39 -2 81.5 -6.5t88.5 -12.5q0 -57 -19 -88q-66 29 -159 32q-4 -42 -5.5 -88t-1.5 -100q0 -88 3 -170q24 1 56 3t80 6q7 -13 11 -34.5t5 -53.5q-34 0 -69 -3.5t-61 -3.5h-16q3 -54 9 -100q-20 -5 -37 -5q-34 0 -49.5 3t-15.5 13 q0 13 2 37.5t5 53.5q-30 1 -60.5 2.5t-56 2.5t-42.5 1.5t-20 0.5q-12 0 -17.5 51t-5.5 139q0 66 1 113t4 76q11 119 205 131q-1 8 -3 19t-2 17t2 16.5t6 26.5q37 0 64.5 -2.5t27.5 -12.5zM110 293q0 -39 4 -61t15.5 -33t31 -14t50.5 -3h26q0 7 0.5 12.5t0.5 10.5v334 q-62 -6 -110 -24q-10 -38 -14 -92.5t-4 -129.5z" />
<glyph unicode="&#xa3;" horiz-adv-x="503" d="M442 -5q-15 2 -46.5 4t-71.5 4t-84 3t-84 1q-38 0 -77 -2.5t-74 -8.5q20 33 37 69t30.5 71.5t24.5 69t19 61.5q-21 0 -39 -2t-40 -7q1 11 1.5 22.5t0.5 23.5q0 49 -10 90q15 0 28.5 -1t27 -1.5t28.5 -1.5t35 -1q12 69 31.5 129.5t49 105t68.5 70t90 25.5q47 0 109 -15 q-27 -34 -39 -67.5t-17 -73.5q-22 40 -63 40q-29 0 -48 -13.5t-33.5 -40.5t-25.5 -67t-23 -93h66q3 0 7.5 1t16.5 6q0 -11 -1 -29.5t-1 -32.5v-15v-11q0 -8 2 -19t7 -34l-70 6q-34 3 -60 6q-3 -21 -7 -38t-9 -33l-9 -32q-5 -16 -10 -36q29 0 60.5 -1t63.5 -1h78h39 q18 0 33 1q0 -11 -1 -27t-1 -29v-14v-20q0 -6 2 -14z" />
<glyph unicode="&#xa5;" horiz-adv-x="628" d="M517 122q-19 16 -92 16q-12 0 -32.5 -0.5t-44.5 -2.5q-2 -24 -3.5 -45t-1.5 -36q0 -36 6 -52q-51 3 -80 3q-55 0 -75 -10q8 16 18 52t21 81h-25q-28 0 -44 3v109q12 0 38 -0.5t55 -0.5q5 30 8.5 55t3.5 40q-8 1 -18 1.5t-21 0.5q-23 0 -45.5 -3t-31.5 -11v25q0 57 3 96 l6 -1q6 -1 16.5 -2t24 -3t27.5 -3l-43 80l-47 82l-40 76q-18 35 -25 56q13 -4 48 -6.5t93 -4.5q6 -25 24 -64t38 -77l36 -68q17 -29 20 -35l45 70l43 67q19 33 33 60.5t19 47.5q10 -2 135 -39q-8 -14 -28 -41l-45 -63l-54 -73l-50 -72h74v-109q-14 -3 -35 -3q-14 0 -39 2 t-54 4q-5 -17 -9 -39t-8 -47h5q42 0 79 1.5t69 3.5q3 -41 3 -92v-29z" />
<glyph unicode="&#xa8;" horiz-adv-x="516" d="M385 727q-12 -3 -19.5 -4t-15.5 -1t-20 1t-33 2q-3 24 -3.5 35.5t-0.5 24.5v16q0 7 1 8q19 4 30.5 5.5t20.5 1t18 -2.5t24 -5q2 -20 3 -31t1 -19q0 -7 -1.5 -13.5t-4.5 -17.5zM214 730q-18 -5 -27.5 -6.5t-28.5 -1.5h-23q-9 0 -10 1q-3 24 -3.5 35.5t-0.5 24.5v16 q0 7 1 8q20 4 31.5 6.5t20.5 2.5q2 1 4 1l14 -1q9 -2 24 -5q2 -20 3 -31t1 -19q0 -7 -1.5 -13.5t-4.5 -17.5z" />
<glyph unicode="&#xa9;" horiz-adv-x="705" d="M68 302q0 -60 22.5 -112t61.5 -91t91 -61.5t112 -22.5t112.5 22.5t91.5 61.5t61.5 91t22.5 112t-22.5 112.5t-61.5 91.5t-91.5 61.5t-112.5 22.5t-112 -22.5t-91 -61.5t-61.5 -91.5t-22.5 -112.5zM37 302q0 66 25 124t68 101.5t101 68.5t124 25t124 -25t101.5 -68.5 t68.5 -101.5t25 -124t-25 -124t-68.5 -101t-101.5 -68t-124 -25t-124 25t-101 68t-68 101t-25 124zM536 170q-45 -83 -159 -83q-105 0 -158 47q-54 52 -54 166t48.5 165t149.5 51q126 0 170 -83q-21 -16 -61 -26q-30 54 -117 54q-66 0 -94 -39t-28 -130q0 -82 35 -115 q32 -29 105 -29q77 0 107 53q36 -14 56 -31z" />
<glyph unicode="&#xaa;" horiz-adv-x="335" d="M160 559q-29 0 -47 -6.5t-20 -29.5q5 -21 20 -28.5t39 -7.5q27 0 51.5 9t24.5 28q0 10 -7.5 17t-18 11t-22.5 5.5t-20 1.5zM92 620q-25 8 -44 18q28 69 118 69q79 0 104 -52v1q11 -23 12 -64q1 -1 1 -8v-55q0 -22 2 -43t6 -43h-17q-8 0 -19 -0.5t-22 -1.5q-5 17 -5 23 q-28 -25 -80 -25q-57 0 -85 24q-23 20 -23 60q0 47 40 68q14 8 33 11.5t42 4.5q14 0 27.5 -2t24.5 -5q10 -4 20 -10q-1 18 -3 29t-6 18q-12 22 -54 22q-14 0 -24 -2.5t-18 -6.5q-6 -5 -11.5 -10.5t-9.5 -15.5z" />
<glyph unicode="&#xab;" horiz-adv-x="519" d="M246 304q31 15 54 28t44 28t43 35l53 50q6 -29 13 -43.5t19 -34.5l-43 -25l-47 -26q-23 -13 -46 -24t-44 -17q45 -24 92 -59l94 -70q-11 -18 -22 -30t-20 -32q-33 32 -56 51.5t-42.5 34t-39.5 27.5l-48 32v11q0 11 -1 20q-2 15 -3 44zM36 304q31 15 54 28t44 28t43 35 l53 50q6 -29 13 -43.5t19 -34.5l-43 -25l-47 -26q-23 -13 -46 -24t-44 -17q45 -24 92 -59l94 -70q-11 -18 -22 -30t-20 -32q-33 32 -56 51.5t-42.5 34t-39.5 27.5l-48 32v11q0 11 -1 20q-2 15 -3 44z" />
<glyph unicode="&#xad;" horiz-adv-x="409" d="M389 351q-14 -3 -35 -3q-16 0 -50 3t-71.5 6t-71.5 6t-51 3q-54 0 -74 -14v25q0 57 3 96l16 -2q16 -2 39 -4.5t47 -4.5t40 -2h208v-109z" />
<glyph unicode="&#xae;" horiz-adv-x="604" d="M243 400h35q15 0 28 1.5t24 3.5h-1q20 3 29 14t9 27q0 22 -12.5 35t-34.5 13h-26q-11 0 -24 -1t-24 -3q-3 -30 -3 -60v-30zM308 363l40 -35l40 -37q19 -18 35.5 -32t26.5 -20q-11 1 -30.5 2t-29.5 1t-17.5 -0.5t-13.5 -1.5q-32 42 -60 72t-54 49q-1 -1 -1 -18v-21 q0 -17 1 -36.5t4 -45.5q-8 1 -16 1.5t-13 0.5t-12 -0.5t-15 -1.5q3 48 4 94.5t1 84.5q0 31 -1 61.5t-3 55.5q27 5 56 6t45 1q63 0 94.5 -20.5t31.5 -66.5q0 -48 -24.5 -70.5t-76.5 -22.5h-12zM85 383q0 -46 17 -86t47 -70t70 -47t86 -17t86 17t70 47t47.5 70t17.5 86t-17 86 t-47 70t-70 47.5t-86 17.5t-86 -17.5t-70 -47.5t-47.5 -70t-17.5 -86zM53 384q0 53 20 99.5t54.5 81t80.5 54.5t99 20t99.5 -20t81 -54.5t54.5 -81t20 -99.5t-20 -99t-54.5 -80.5t-81 -54.5t-99.5 -20t-99 20t-80.5 54.5t-54.5 80.5t-20 99z" />
<glyph unicode="&#xaf;" horiz-adv-x="388" d="M353 729q-32 3 -71.5 5t-81.5 2q-13 1 -27 1q-28 0 -55 -1q-41 -1 -75 -4q1 13 1 27v14q-1 21 -6 41q38 -2 99.5 -3.5t127.5 -1.5h65h11q9 0 11 1q-1 -27 -1 -45q0 -25 2 -36z" />
<glyph unicode="&#xb0;" horiz-adv-x="395" d="M93 521q0 -108 103 -108q107 0 107 107q0 114 -102 114q-32 0 -53 -6t-33 -19.5t-17 -35t-5 -52.5zM356 528q0 -75 -43 -115q-40 -37 -110 -37q-161 0 -161 134q0 85 37 123t118 38q159 0 159 -143z" />
<glyph unicode="&#xb2;" horiz-adv-x="307" d="M268 448q4 -11 5.5 -17.5t1.5 -12.5t-1 -13.5t-1 -19.5q-58 2 -108 3.5t-84 1.5q-13 0 -28.5 -0.5t-24.5 -1.5q5 26 6.5 40t2.5 27q1 22 4 41.5t13 34.5t31 24t58 11q17 1 31 2t23.5 4t13.5 10.5t1 22.5q0 29 -12 38t-47 9q-25 0 -40 -7.5t-16 -27.5q-16 4 -29 5.5 t-28 10.5q2 20 12 33.5t25.5 22t34 12t38.5 3.5q25 0 46 -3.5t37 -14t25 -29.5t9 -49q0 -33 -9.5 -52t-25 -28t-35.5 -11.5t-42 -3.5q-14 -1 -28 -5.5t-24.5 -14t-14.5 -24.5q-2 -7 -2 -15q0 -9 3 -21z" />
<glyph unicode="&#xb3;" horiz-adv-x="283" d="M37 453q9 6 21.5 10t26.5 8q6 -21 20.5 -28.5t37.5 -7.5q35 0 46 9t11 42q0 17 -19.5 26t-41.5 11q-11 2 -21 -1l-21 -5v29q0 5 0.5 15.5t0.5 18.5q11 -3 20 -4.5t20 -1.5q22 1 40 10t18 26q0 28 -14.5 36.5t-40.5 8.5q-24 0 -37.5 -6t-18.5 -29q-17 3 -30 8t-24 11 q4 22 15 35t26 20.5t32.5 10t35.5 2.5q51 0 81.5 -20t30.5 -72q0 -21 -9.5 -38t-23.5 -26q15 -10 25.5 -26.5t10.5 -38.5q0 -31 -7 -51t-21.5 -31.5t-36 -16t-50.5 -4.5q-17 0 -34.5 2.5t-32.5 9.5t-25.5 19t-14.5 32z" />
<glyph unicode="&#xb4;" horiz-adv-x="516" d="M165 720q-5 17 -11.5 30.5t-17.5 34.5l64 27l44 20q20 9 38 18l40 21q5 -20 10 -35t15 -33q-33 -11 -55 -19t-41 -17t-39 -20z" />
<glyph unicode="&#xb6;" horiz-adv-x="847" d="M765 665q11 -35 15 -74t4 -82q0 -88 -27 -278q-32 -14 -63 -19.5t-63 -5.5q-81 0 -180 41q-6 39 -10 67.5t-6.5 56t-3.5 57.5t-1 71q0 81 73 190q45 0 81 -1.5t66.5 -4.5t58 -7.5t56.5 -10.5zM404 223q-13 -7 -56 -7q-9 0 -18.5 0.5t-19.5 1.5q-26 49 -61.5 106.5 t-80.5 120.5q0 -45 0.5 -75t1.5 -53.5t1.5 -45t0.5 -49.5q-24 -6 -56 -6q-21 0 -46 3q3 17 5.5 40.5t4 48t2.5 49t1 44.5q0 51 -2 98.5t-2 98.5q0 35 6 83q45 -14 51 -14q-1 0 6 1.5t21 3.5q32 -79 75 -152t85 -125q1 1 1 20q0 31 -3.5 72t-7.5 80t-7.5 69.5t-3.5 38.5 q22 -3 45 -3q14 0 28.5 1t28.5 4q-2 -14 -2.5 -32.5t-0.5 -55.5v-59q0 -42 0.5 -92.5t1 -95.5t1 -78.5t0.5 -40.5zM694 583q-38 8 -72 10.5t-50 2.5q-8 0 -14 -1l-11 -2q-17 -48 -25.5 -93t-8.5 -96q0 -15 2.5 -29t8.5 -25.5t15.5 -18.5t24.5 -7h65q10 0 21 0.5t22 1.5 q17 58 20.5 106t3.5 85q0 12 -0.5 28.5t-1.5 37.5zM760 44q-27 -3 -69 -3q-21 0 -59 1.5t-84 3.5l-96 4l-98 4q-46 2 -84.5 3.5t-60.5 1.5q-103 0 -147 -14v25q0 57 6 98q-1 0 14 -1t40 -3l54 -3q31 -2 62.5 -3.5t60.5 -2.5t50 -1h411v-110z" />
<glyph unicode="&#xb8;" horiz-adv-x="460" d="M232 11v-17q0 -14 4.5 -18t15.5 -6q12 -2 24.5 -6.5t22.5 -14.5t16.5 -28t6.5 -47q0 -27 -8 -43.5t-22.5 -25.5t-34 -12t-43.5 -3q-14 0 -29.5 3t-29 11t-24 21t-13.5 33q10 2 15 4t9 4.5t9 5t16 5.5q4 -21 17.5 -30t35.5 -10q25 0 37.5 10t12.5 37q0 20 -10 27.5 t-27 12.5q-21 7 -38.5 22t-17.5 50v16z" />
<glyph unicode="&#xb9;" horiz-adv-x="192" d="M78 403q4 12 6 47t2 77q0 47 -0.5 66.5t-1.5 30.5q-11 -11 -21 -28q-25 22 -41 27q44 44 63 91q6 -6 14 -8.5t14 -2.5q3 0 9.5 1.5t12.5 3.5q-2 -21 -3.5 -54t-1.5 -79q1 -62 3 -105.5t6 -81.5q-11 3 -26.5 6.5t-34.5 8.5z" />
<glyph unicode="&#xba;" horiz-adv-x="348" d="M166 653q-42 0 -59.5 -27t-17.5 -87q0 -55 14.5 -77t56.5 -22q49 0 64 28.5t15 79.5q0 23 -2.5 42.5t-10.5 33.5t-22.5 21.5t-37.5 7.5zM171 706q37 0 61.5 -11t38 -32t19 -50.5t5.5 -65.5q0 -161 -132 -161q-33 0 -57.5 7t-40.5 25t-24 48.5t-8 77.5q0 81 33 121.5 t105 40.5z" />
<glyph unicode="&#xbb;" horiz-adv-x="503" d="M468 304q-1 -29 -3 -44q-1 -9 -1 -20v-11l-48 -32q-20 -13 -39.5 -27.5t-42.5 -34t-56 -51.5q-9 20 -20 32t-22 30l94 70q47 35 92 59q-21 6 -44 17t-46 24l-47 26l-43 25q12 20 19 34.5t13 43.5l53 -50q22 -20 43 -35t43.5 -28t54.5 -28zM268 304q-1 -29 -3 -44 q-1 -9 -1 -20v-11l-48 -32q-20 -13 -39.5 -27.5t-42.5 -34t-56 -51.5q-9 20 -20 32t-22 30l94 70q47 35 92 59q-21 6 -44 17t-46 24l-47 26l-43 25q12 20 19 34.5t13 43.5l53 -50q22 -20 43 -35t43.5 -28t54.5 -28z" />
<glyph unicode="&#xbc;" horiz-adv-x="636" d="M460 145q0 23 -0.5 37.5t-0.5 28.5q-14 -16 -27 -32.5t-23 -32.5q5 -1 10 -1h12h29zM85 490q-2 -3 -5 -6l-8 -8l-12 10q-5 4 -12.5 8.5t-19 9t-29.5 10.5q73 67 94 117q17 -11 33 -11q2 0 11.5 2t26.5 6q-5 -24 -7 -39t-2 -34q0 -60 2 -126t6 -156q-17 4 -29 6t-25 2 q-5 0 -10.5 -0.5t-12.5 -1.5zM526 177v-29h11q15 0 19 -19q2 -7 2 -24v-12v-41q-5 0 -14 0.5t-12 0.5q1 -12 3.5 -28.5t6.5 -33.5q-20 10 -52 10q-16 -1 -26 -1.5t-15 -0.5q0 8 2 24t2 32q-8 0 -15.5 0.5t-14.5 0.5h-98q-3 0 -6 -0.5t-10 -4.5q-6 40 -6 61v28q23 22 45 48 l43 54l41 55l39 51q13 -9 30 -9q15 0 22 4zM567 583l-72 -86l-81 -101l-84 -110l-81 -109l-72 -100l-56 -82q-34 8 -41 8t-25.5 -2.5t-47.5 -7.5l83 97l86 107l86 111l82 111l76 104l64 92q11 2 21 3.5t20 1.5q25 0 38 -7z" />
<glyph unicode="&#xbd;" horiz-adv-x="684" d="M102 436q-1 8 -1 15v15v15q0 9 -1 19q-4 -4 -6 -8t-6 -10q-1 1 -5.5 5t-4.5 5v-2q-3 3 -6 5.5t-9.5 6t-18.5 8.5l-32 11q76 72 95 118q19 -13 28 -13h4q4 1 17 3.5t21 4.5q-5 -35 -7.5 -72t-2.5 -73q2 -47 5.5 -104.5t5.5 -104.5q-18 5 -30 6.5t-24 1.5h-11q-8 0 -13 -1z M568 583l-70 -87l-81 -102l-85 -109l-80 -109l-72 -99l-57 -82q-21 8 -42 8q-5 0 -23 -2.5t-50 -7.5q60 67 126 149l130 166l120 164l102 143q25 5 41 5q23 0 38 -7zM493 90h34q27 0 49 1.5t30 4.5q10 -25 12 -37.5t2 -28.5q-1 -3 -1.5 -10t-0.5 -23q-57 2 -111 3.5t-87 1.5 h-16l-20 -2q-10 0 -19 -0.5t-13 -0.5q4 21 7 35t4.5 23t2.5 14.5t1 10.5v12q0 26 5.5 47.5t20 37t39 24t62.5 8.5q30 2 37 4.5t7 13.5q0 17 -9 21.5t-38 4.5q-21 0 -33.5 -7.5t-13.5 -28.5q-9 1 -16 1.5t-15 2.5t-18 6.5t-26 14.5q2 27 13 46t27.5 31t36.5 17.5t41 5.5 q26 0 49 -4.5t40 -16.5t26.5 -34t9.5 -57q0 -39 -10 -61t-26.5 -32.5t-38 -13.5t-43.5 -4q-22 -2 -40 -9t-23 -29z" />
<glyph unicode="&#xbe;" horiz-adv-x="686" d="M538 153v58q-14 -16 -26 -33l-25 -32q7 -1 13 -1h13h25v8zM156 541q-22 0 -33 -5.5t-16 -28.5q13 -4 22 -4.5t15 -0.5h9q17 0 31.5 4t17.5 11q-1 14 -13.5 19t-32.5 5zM605 177v-30q5 0 7.5 1t13.5 1q14 -23 14 -47q0 -11 -6 -50q-5 0 -12 0.5t-10 0.5h-2l2 -15l4 -18 q1 -9 2.5 -16.5t2.5 -11.5q-35 9 -52 9h-13q1 0 -9.5 -1t-21.5 -1l5 33q2 13 4 24h-132q-2 0 -4.5 -0.5t-9.5 -2.5q-5 25 -6 42.5t-1 44.5q30 29 61 68l56 73q2 2 3 4t3 4l9 12q8 11 20 25.5t17 21.5q11 -8 31 -8h10q5 0 11 2zM602 583l-72 -86l-81 -101l-84 -110l-81 -109 l-72 -100l-56 -82q-21 8 -41 8q-7 0 -25.5 -2.5t-47.5 -7.5q60 67 126 149l129 166l121 164l102 143q25 5 40 5q24 0 38 -7zM105 403q7 -21 20 -28.5t33 -7.5q29 0 38.5 5t9.5 25q0 3 -6 6t-15.5 6t-20.5 4.5t-21 1.5q-8 0 -18 -3t-23 -5v100q-36 8 -67 27q6 31 18 49.5 t28 29t34.5 14t38.5 3.5q27 0 49 -5.5t38 -18t25 -33t9 -51.5q0 -38 -19 -61q9 -11 15.5 -27.5t6.5 -36.5q0 -35 -7.5 -58t-23 -36.5t-39 -19t-54.5 -5.5q-18 0 -36.5 4t-34.5 14.5t-28.5 28.5t-18.5 47z" />
<glyph unicode="&#xbf;" horiz-adv-x="523" d="M33 106q0 108 66 149q31 11 64.5 20.5t61 23.5t45 35.5t17.5 57.5q0 49 -27 129q1 0 12.5 1t26.5 2l30 2q15 1 24 1q28 0 33 -6q2 -3 5.5 -19t6.5 -36.5t5 -40t2 -30.5q0 -94 -73 -140l-135 -59q-72 -30 -72 -84q0 -21 9 -46q73 -35 171 -35q116 0 199 44q16 -20 18 -117 q-64 -13 -133 -19.5t-147 -6.5q-97 0 -153 46.5t-56 127.5zM242 662q0 12 7.5 22.5t19 18.5t24.5 12.5t24 4.5q57 0 57 -76q0 -53 -51 -53q-15 0 -29.5 5.5t-26 15.5t-18.5 22.5t-7 27.5z" />
<glyph unicode="&#xc0;" d="M323 445q-96 -168 -97 -230h165q5 15 5 26q0 12 -5.5 31t-23.5 64q-8 23 -19 50zM651 33q-5 -19 -41 -42l-82 -53q-11 11 -21 35l-20 50l-19 49q-9 23 -18 32q-51 7 -86.5 10t-57.5 3q-166 0 -166 -149l-54 15q-32 9 -77 20l63 139l63 142q37 84 61 155.5t37 134.5 q-11 2 -23 3t-23 1q-31 0 -56 -9q-12 15 -12 107q37 -3 123 -3h127q42 1 80 1.5t56 0.5q2 -17 3 -42l4 -59q-5 -1 -18 -1.5t-35 -0.5q-9 0 -19.5 0.5t-22.5 0.5q-3 -6 -3 -17q0 -69 94 -273q95 -209 143 -250zM403 696q-45 27 -89.5 48t-92.5 35q20 26 25 68q49 -28 95 -49 t91 -37q-10 -15 -17 -31.5t-12 -33.5z" />
<glyph unicode="&#xc1;" d="M323 445q-96 -168 -97 -230h165q5 15 5 26q0 12 -5.5 31t-23.5 64q-8 23 -19 50zM651 33q-5 -19 -41 -42l-82 -53q-11 11 -21 35l-20 50l-19 49q-9 23 -18 32q-51 7 -86.5 10t-57.5 3q-166 0 -166 -149l-54 15q-32 9 -77 20l63 139l63 142q37 84 61 155.5t37 134.5 q-11 2 -23 3t-23 1q-31 0 -56 -9q-12 15 -12 107q37 -3 123 -3h127q42 1 80 1.5t56 0.5q2 -17 3 -42l4 -59q-5 -1 -18 -1.5t-35 -0.5q-9 0 -19.5 0.5t-22.5 0.5q-3 -6 -3 -17q0 -69 94 -273q95 -209 143 -250zM256 701q-5 17 -11.5 30.5t-17.5 34.5l64 27l44 20q20 9 38 18 l40 21q5 -20 10 -35t15 -33q-33 -11 -55 -19t-41 -17t-39 -20z" />
<glyph unicode="&#xc2;" d="M323 445q-96 -168 -97 -230h165q5 15 5 26q0 12 -5.5 31t-23.5 64q-8 23 -19 50zM651 33q-5 -19 -41 -42l-82 -53q-11 11 -21 35l-20 50l-19 49q-9 23 -18 32q-51 7 -86.5 10t-57.5 3q-166 0 -166 -149l-54 15q-32 9 -77 20l63 139l63 142q37 84 61 155.5t37 134.5 q-11 2 -23 3t-23 1q-31 0 -56 -9q-12 15 -12 107q37 -3 123 -3h127q42 1 80 1.5t56 0.5q2 -17 3 -42l4 -59q-5 -1 -18 -1.5t-35 -0.5q-9 0 -19.5 0.5t-22.5 0.5q-3 -6 -3 -17q0 -69 94 -273q95 -209 143 -250zM436 706q-60 27 -96 66q-22 -17 -48 -33.5t-57 -33.5 q-10 22 -41 56q74 30 148 83q68 -53 140 -89l-22 -25q-12 -13 -24 -24z" />
<glyph unicode="&#xc3;" d="M323 445q-96 -168 -97 -230h165q5 15 5 26q0 12 -5.5 31t-23.5 64q-8 23 -19 50zM651 33q-5 -19 -41 -42l-82 -53q-11 11 -21 35l-20 50l-19 49q-9 23 -18 32q-51 7 -86.5 10t-57.5 3q-166 0 -166 -149l-54 15q-32 9 -77 20l63 139l63 142q37 84 61 155.5t37 134.5 q-11 2 -23 3t-23 1q-31 0 -56 -9q-12 15 -12 107q37 -3 123 -3h127q42 1 80 1.5t56 0.5q2 -17 3 -42l4 -59q-5 -1 -18 -1.5t-35 -0.5q-9 0 -19.5 0.5t-22.5 0.5q-3 -6 -3 -17q0 -69 94 -273q95 -209 143 -250zM427 820q13 -12 27 -23.5t30 -22.5q-28 -53 -72 -56 q-4 -1 -9 -1q-40 0 -85 25q-26 8 -41.5 11t-25.5 -0.5t-16.5 -15t-14.5 -32.5q-14 11 -29.5 21.5t-32.5 18.5q17 40 60 62q17 9 38 9q36 0 84 -24q28 -12 46 -12h8q19 5 33 40z" />
<glyph unicode="&#xc4;" d="M323 445q-96 -168 -97 -230h165q5 15 5 26q0 12 -5.5 31t-23.5 64q-8 23 -19 50zM651 33q-5 -19 -41 -42l-82 -53q-11 11 -21 35l-20 50l-19 49q-9 23 -18 32q-51 7 -86.5 10t-57.5 3q-166 0 -166 -149l-54 15q-32 9 -77 20l63 139l63 142q37 84 61 155.5t37 134.5 q-11 2 -23 3t-23 1q-31 0 -56 -9q-12 15 -12 107q37 -3 123 -3h127q42 1 80 1.5t56 0.5q2 -17 3 -42l4 -59q-5 -1 -18 -1.5t-35 -0.5q-9 0 -19.5 0.5t-22.5 0.5q-3 -6 -3 -17q0 -69 94 -273q95 -209 143 -250zM455 733q-12 -3 -19.5 -4t-15.5 -1t-20 1t-33 2 q-3 24 -3.5 35.5t-0.5 24.5v16q0 7 1 8q19 4 30.5 5.5t20.5 1t18 -2.5t24 -5q2 -20 3 -31t1 -19q0 -7 -1.5 -13.5t-4.5 -17.5zM284 736q-18 -5 -27.5 -6.5t-28.5 -1.5h-23q-9 0 -10 1q-3 24 -3.5 35.5t-0.5 24.5v16q0 7 1 8q20 4 31.5 6.5t20.5 2.5q2 1 4 1l14 -1 q9 -2 24 -5q2 -20 3 -31t1 -19q0 -7 -1.5 -13.5t-4.5 -17.5z" />
<glyph unicode="&#xc5;" d="M323 445q-96 -168 -97 -230h165q5 15 5 26q0 12 -5.5 31t-23.5 64q-8 23 -19 50zM651 33q-5 -19 -41 -42l-82 -53q-11 11 -21 35l-20 50l-19 49q-9 23 -18 32q-51 7 -86.5 10t-57.5 3q-166 0 -166 -149l-54 15q-32 9 -77 20l63 139l63 142q37 84 61 155.5t37 134.5 q-11 2 -23 3t-23 1q-31 0 -56 -9q-12 15 -12 107q37 -3 123 -3h127q42 1 80 1.5t56 0.5q2 -17 3 -42l4 -59q-5 -1 -18 -1.5t-35 -0.5q-9 0 -19.5 0.5t-22.5 0.5q-3 -6 -3 -17q0 -69 94 -273q95 -209 143 -250zM271.48 773.279q0 -62.3291 59.0781 -62.3291 q61.4102 0 61.4102 62.3291q0 65.4453 -58.3008 65.4453q-37.3125 0 -49.75 -14.4141q-12.4375 -14.4131 -12.4375 -51.0312zM435.5 777.954q0 -49.085 -28.7617 -75.5742q-26.4297 -24.1523 -71.5156 -24.1523q-105.719 0 -105.719 88.0391q0 56.0967 24.0977 81.0283 t77.7344 24.9316q104.164 0 104.164 -94.2725z" />
<glyph unicode="&#xc6;" horiz-adv-x="781" d="M731 435q-2 -45 -5 -72t-5 -38q-14 -3 -45 -6t-67.5 -7.5t-74 -11.5t-63.5 -17q0 -52 2.5 -86t9 -54t18 -28t29.5 -8t47.5 2.5t59.5 6t54.5 6t32.5 2.5v-101q-36 -6 -81.5 -9.5t-92 -8t-92 -12t-81.5 -20.5q-2 57 -3 105l-2 94q-10 -1 -20 -1h-21h-45h-52h-28 q-14 0 -29 1q-11 -17 -20 -44t-16 -55t-11.5 -51t-5.5 -32q-45 16 -87 16q-5 0 -10 -0.5t-10 -0.5q1 6 12 45.5t32 123.5l53 218l75 332q9 -1 28 -4.5t51 -7t78 -6.5t109 -3q115 0 183.5 3.5t86.5 3.5q-2 -8 -2.5 -30.5t-1.5 -60.5q-27 0 -61.5 -3t-60.5 -6q-45 -6 -72 -8 t-42 -10t-20 -26.5t-5 -56.5q0 -70 30 -97q7 0 9.5 0.5t6.5 2t14.5 3t35 4t66.5 6t109 7.5zM263 572q-9 -26 -18 -58.5t-17.5 -69.5t-16.5 -76l-16 -77q35 -11 77.5 -16t96.5 -5q-2 74 -7 142t-15 146q-20 5 -41 8.5t-43 5.5z" />
<glyph unicode="&#xc7;" horiz-adv-x="552" d="M552 691q-1 -35 -2 -55.5t-2.5 -32.5t-4.5 -18t-9 -11q-72 39 -180 39q-112 0 -191 -39q-7 -42 -10.5 -107.5t-3.5 -159.5q0 -60 2.5 -95.5t16 -54t43.5 -24t84 -5.5q68 0 142 13l10 3l22.5 4.5t22.5 5.5l11 2q6 0 13 -12.5t12 -29.5t8.5 -35t3.5 -28q0 -14 -13.5 -21 t-44.5 -10.5t-82 -4t-126 -0.5q-81 0 -126.5 2t-56.5 8q-31 15 -31 340v38l2 54q0 28 0.5 50t0.5 26q11 182 277 182q95 0 212 -24zM329 26v-17q0 -14 4.5 -18t15.5 -6q12 -2 24.5 -6.5t22.5 -14.5t16.5 -28t6.5 -47q0 -27 -8 -43.5t-22.5 -25.5t-34 -12t-43.5 -3 q-14 0 -29.5 3t-29 11t-24 21t-13.5 33q10 2 15 4t9 4.5t9 5t16 5.5q4 -21 17.5 -30t35.5 -10q25 0 37.5 10t12.5 37q0 20 -10 27.5t-27 12.5q-21 7 -38.5 22t-17.5 50v16z" />
<glyph unicode="&#xc8;" horiz-adv-x="654" d="M654 654q-5 -17 -8.5 -39.5t-5.5 -50.5q-24 1 -66 2l-86 4q-44 1 -80 2.5t-48 3.5q-41 -27 -41 -111q0 -53 21 -78h146q45 0 80.5 -1.5t64.5 -5.5q-17 -33 -21 -108q-8 -8 -36 -8q-14 0 -44 3l-61 6l-61 6q-30 3 -45 3q-20 0 -32 -2.5t-18 -8t-8 -14.5t-2 -21 q0 -53 3 -85.5t12.5 -51t27.5 -25t47 -6.5q10 0 29.5 1t41.5 2t41.5 2t29.5 1q14 0 28.5 -0.5t28.5 -1.5q-5 -22 -7 -47t-3 -54q-8 -3 -35 -3q-15 0 -46 1l-65 2q-34 1 -64.5 2t-44.5 1q-96 0 -145 -11q0 5 2 43l5 94l7 120l6 120l5 96q2 39 2 45q0 24 -0.5 47t-1.5 46 q-24 9 -57 9q-56 0 -105 -23q4 25 8 62t9 88q54 -13 127 -20.5t168 -11.5q208 -8 297 -24zM471 701q-45 27 -89.5 48t-92.5 35q20 26 25 68q49 -28 95 -49t91 -37q-10 -15 -17 -31.5t-12 -33.5z" />
<glyph unicode="&#xc9;" horiz-adv-x="654" d="M654 654q-5 -17 -8.5 -39.5t-5.5 -50.5q-24 1 -66 2l-86 4q-44 1 -80 2.5t-48 3.5q-41 -27 -41 -111q0 -53 21 -78h146q45 0 80.5 -1.5t64.5 -5.5q-17 -33 -21 -108q-8 -8 -36 -8q-14 0 -44 3l-61 6l-61 6q-30 3 -45 3q-20 0 -32 -2.5t-18 -8t-8 -14.5t-2 -21 q0 -53 3 -85.5t12.5 -51t27.5 -25t47 -6.5q10 0 29.5 1t41.5 2t41.5 2t29.5 1q14 0 28.5 -0.5t28.5 -1.5q-5 -22 -7 -47t-3 -54q-8 -3 -35 -3q-15 0 -46 1l-65 2q-34 1 -64.5 2t-44.5 1q-96 0 -145 -11q0 5 2 43l5 94l7 120l6 120l5 96q2 39 2 45q0 24 -0.5 47t-1.5 46 q-24 9 -57 9q-56 0 -105 -23q4 25 8 62t9 88q54 -13 127 -20.5t168 -11.5q208 -8 297 -24zM327 708q-5 17 -11.5 30.5t-17.5 34.5l64 27l44 20q20 9 38 18l40 21q5 -20 10 -35t15 -33q-33 -11 -55 -19t-41 -17t-39 -20z" />
<glyph unicode="&#xca;" horiz-adv-x="654" d="M654 654q-5 -17 -8.5 -39.5t-5.5 -50.5q-24 1 -66 2l-86 4q-44 1 -80 2.5t-48 3.5q-41 -27 -41 -111q0 -53 21 -78h146q45 0 80.5 -1.5t64.5 -5.5q-17 -33 -21 -108q-8 -8 -36 -8q-14 0 -44 3l-61 6l-61 6q-30 3 -45 3q-20 0 -32 -2.5t-18 -8t-8 -14.5t-2 -21 q0 -53 3 -85.5t12.5 -51t27.5 -25t47 -6.5q10 0 29.5 1t41.5 2t41.5 2t29.5 1q14 0 28.5 -0.5t28.5 -1.5q-5 -22 -7 -47t-3 -54q-8 -3 -35 -3q-15 0 -46 1l-65 2q-34 1 -64.5 2t-44.5 1q-96 0 -145 -11q0 5 2 43l5 94l7 120l6 120l5 96q2 39 2 45q0 24 -0.5 47t-1.5 46 q-24 9 -57 9q-56 0 -105 -23q4 25 8 62t9 88q54 -13 127 -20.5t168 -11.5q208 -8 297 -24zM513 722q-60 27 -96 66q-22 -17 -48 -33.5t-57 -33.5q-10 22 -41 56q74 30 148 83q68 -53 140 -89l-22 -25q-12 -13 -24 -24z" />
<glyph unicode="&#xcb;" horiz-adv-x="654" d="M654 654q-5 -17 -8.5 -39.5t-5.5 -50.5q-24 1 -66 2l-86 4q-44 1 -80 2.5t-48 3.5q-41 -27 -41 -111q0 -53 21 -78h146q45 0 80.5 -1.5t64.5 -5.5q-17 -33 -21 -108q-8 -8 -36 -8q-14 0 -44 3l-61 6l-61 6q-30 3 -45 3q-20 0 -32 -2.5t-18 -8t-8 -14.5t-2 -21 q0 -53 3 -85.5t12.5 -51t27.5 -25t47 -6.5q10 0 29.5 1t41.5 2t41.5 2t29.5 1q14 0 28.5 -0.5t28.5 -1.5q-5 -22 -7 -47t-3 -54q-8 -3 -35 -3q-15 0 -46 1l-65 2q-34 1 -64.5 2t-44.5 1q-96 0 -145 -11q0 5 2 43l5 94l7 120l6 120l5 96q2 39 2 45q0 24 -0.5 47t-1.5 46 q-24 9 -57 9q-56 0 -105 -23q4 25 8 62t9 88q54 -13 127 -20.5t168 -11.5q208 -8 297 -24zM550 733q-12 -3 -19.5 -4t-15.5 -1t-20 1t-33 2q-3 24 -3.5 35.5t-0.5 24.5v16q0 7 1 8q19 4 30.5 5.5t20.5 1t18 -2.5t24 -5q2 -20 3 -31t1 -19q0 -7 -1.5 -13.5t-4.5 -17.5z M379 736q-18 -5 -27.5 -6.5t-28.5 -1.5h-23q-9 0 -10 1q-3 24 -3.5 35.5t-0.5 24.5v16q0 7 1 8q20 4 31.5 6.5t20.5 2.5q2 1 4 1l14 -1q9 -2 24 -5q2 -20 3 -31t1 -19q0 -7 -1.5 -13.5t-4.5 -17.5z" />
<glyph unicode="&#xcc;" horiz-adv-x="202" d="M184 607q0 -1 -12 -56q-11 -52 -16.5 -122.5t-5.5 -160.5q0 -100 6 -190t17 -178q-21 -6 -49 -6q-46 0 -67 3t-21 14q0 14 3 42.5t7 59t7 59t3 42.5v421q0 8 -3 22t-3 21q0 9 11 44q25 0 47 -0.5t39 -2t27 -4.5t10 -8zM187 666q-45 27 -89.5 48t-92.5 35q20 26 25 68 q49 -28 95 -49t91 -37q-10 -15 -17 -31.5t-12 -33.5z" />
<glyph unicode="&#xcd;" horiz-adv-x="202" d="M184 607q0 -1 -12 -56q-11 -52 -16.5 -122.5t-5.5 -160.5q0 -100 6 -190t17 -178q-21 -6 -49 -6q-46 0 -67 3t-21 14q0 14 3 42.5t7 59t7 59t3 42.5v421q0 8 -3 22t-3 21q0 9 11 44q25 0 47 -0.5t39 -2t27 -4.5t10 -8zM29 649q-5 17 -11.5 30.5t-17.5 34.5l64 27l44 20 q20 9 38 18l40 21q5 -20 10 -35t15 -33q-33 -11 -55 -19t-41 -17t-39 -20z" />
<glyph unicode="&#xce;" horiz-adv-x="202" d="M184 607q0 -1 -12 -56q-11 -52 -16.5 -122.5t-5.5 -160.5q0 -100 6 -190t17 -178q-21 -6 -49 -6q-46 0 -67 3t-21 14q0 14 3 42.5t7 59t7 59t3 42.5v421q0 8 -3 22t-3 21q0 9 11 44q25 0 47 -0.5t39 -2t27 -4.5t10 -8zM214 677q-60 27 -96 66q-22 -17 -48 -33.5 t-57 -33.5q-10 22 -41 56q74 30 148 83q68 -53 140 -89l-22 -25q-12 -13 -24 -24z" />
<glyph unicode="&#xcf;" horiz-adv-x="202" d="M184 607q0 -1 -12 -56q-11 -52 -16.5 -122.5t-5.5 -160.5q0 -100 6 -190t17 -178q-21 -6 -49 -6q-46 0 -67 3t-21 14q0 14 3 42.5t7 59t7 59t3 42.5v421q0 8 -3 22t-3 21q0 9 11 44q25 0 47 -0.5t39 -2t27 -4.5t10 -8zM243 693q-12 -3 -19.5 -4t-15.5 -1t-20 1t-33 2 q-3 24 -3.5 35.5t-0.5 24.5v16q0 7 1 8q19 4 30.5 5.5t20.5 1t18 -2.5t24 -5q2 -20 3 -31t1 -19q0 -7 -1.5 -13.5t-4.5 -17.5zM72 696q-18 -5 -27.5 -6.5t-28.5 -1.5h-23q-9 0 -10 1q-3 24 -3.5 35.5t-0.5 24.5v16q0 7 1 8q20 4 31.5 6.5t20.5 2.5q2 1 4 1l14 -1q9 -2 24 -5 q2 -20 3 -31t1 -19q0 -7 -1.5 -13.5t-4.5 -17.5z" />
<glyph unicode="&#xd0;" horiz-adv-x="670" d="M659 298q0 -13 -3 -44.5t-9.5 -70.5t-15.5 -80.5t-21 -73.5q-2 -5 -24.5 -10.5t-53.5 -9.5t-64 -6.5t-57 -2.5h-255q-39 0 -39 41q0 12 1.5 18t3.5 25t4 60.5t4 124.5q-3 1 -10 1h-8q-54 0 -74 -14v25q0 57 3 96l8 -1q8 -1 21 -3t29.5 -4t32.5 -3l2 68q1 34 1.5 61.5 t0.5 48.5v31q-47 24 -80 24q-19 0 -34 -4v121l236 -18l332 -29q1 -12 6 -38l14 -60l16 -73q9 -38 16 -75.5t12 -70t5 -54.5zM391 255q-14 -3 -35 -3q-18 0 -56 3t-80 7v-4v-35q0 -16 0.5 -33.5t0.5 -33.5t0.5 -28.5t0.5 -16.5l16 -12q9 0 26.5 -1t37.5 -1.5t38.5 -1.5 t27.5 -1q183 0 183 130q0 143 -51 350q-158 28 -225 28q-12 0 -21.5 -12.5t-16.5 -40.5t-11 -73.5t-5 -111.5h170v-109z" />
<glyph unicode="&#xd1;" horiz-adv-x="703" d="M627 -114q-13 -4 -38 -4q-12 0 -33.5 1.5t-33.5 1.5q-19 0 -35 -3q-89 174 -255 404q-20 -14 -20 -118q0 -13 1.5 -44t4 -68t4 -74t1.5 -61v-35q-15 -2 -33 -3.5t-41 -1.5q-6 0 -13 0.5t-16 0.5h-35q15 72 15 294q0 19 -0.5 53t-1.5 75t-1.5 85.5t-1.5 86t-1.5 75 t-0.5 53.5q0 16 1 19q40 -22 82 -22q26 0 43 7l66 -128l65 -128q40 -73 79.5 -132t79.5 -107q12 15 12 80q0 30 -3 72t-7 88.5t-9 92.5l-9 82q-4 37 -7 60.5t-3 26.5q7 0 23 -3l32 -6l31 -6q15 -3 23 -3q18 0 35 11q-2 -67 -3 -145.5t-1 -169.5v-83v-77q0 -45 1 -103 q0 -6 -0.5 -12.5t-0.5 -14.5q0 -23 1 -52t3 -65zM464 784q13 -12 27 -23.5t30 -22.5q-28 -53 -72 -56q-4 -1 -9 -1q-40 0 -85 25q-26 8 -41.5 11t-25.5 -0.5t-16.5 -15t-14.5 -32.5q-14 11 -29.5 21.5t-32.5 18.5q17 40 60 62q17 9 38 9q36 0 84 -24q28 -12 46 -12h8 q19 5 33 40z" />
<glyph unicode="&#xd2;" horiz-adv-x="569" d="M544 318q0 -198 -29 -343q-32 -21 -136 -21q-8 0 -21 0.5t-27 0.5t-26 0.5t-17 0.5l-11 7q-5 0 -16.5 -0.5t-24.5 -0.5q-12 0 -23.5 -0.5t-17.5 -0.5q-86 0 -132 28q6 12 6 30q0 13 -5 38l-12 53l-12 52q-6 25 -6 37q0 60 4 121.5t12 127.5q20 173 58 232q13 21 237 21 q146 0 166 -9q7 -3 13 -34t10.5 -82t7 -117.5t2.5 -140.5zM452 283q0 63 -7 139.5t-21 167.5q-6 0 -29.5 1.5t-53 4t-59 4t-47.5 1.5q-51 0 -76.5 -65.5t-25.5 -183.5q0 -41 4 -85.5t11.5 -84.5t17.5 -70.5t22 -44.5q48 -6 126 -6q97 0 112 15q26 86 26 207zM376 719 q-45 27 -89.5 48t-92.5 35q20 26 25 68q49 -28 95 -49t91 -37q-10 -15 -17 -31.5t-12 -33.5z" />
<glyph unicode="&#xd3;" horiz-adv-x="569" d="M544 318q0 -198 -29 -343q-32 -21 -136 -21q-8 0 -21 0.5t-27 0.5t-26 0.5t-17 0.5l-11 7q-5 0 -16.5 -0.5t-24.5 -0.5q-12 0 -23.5 -0.5t-17.5 -0.5q-86 0 -132 28q6 12 6 30q0 13 -5 38l-12 53l-12 52q-6 25 -6 37q0 60 4 121.5t12 127.5q20 173 58 232q13 21 237 21 q146 0 166 -9q7 -3 13 -34t10.5 -82t7 -117.5t2.5 -140.5zM452 283q0 63 -7 139.5t-21 167.5q-6 0 -29.5 1.5t-53 4t-59 4t-47.5 1.5q-51 0 -76.5 -65.5t-25.5 -183.5q0 -41 4 -85.5t11.5 -84.5t17.5 -70.5t22 -44.5q48 -6 126 -6q97 0 112 15q26 86 26 207zM229 720 q-5 17 -11.5 30.5t-17.5 34.5l64 27l44 20q20 9 38 18l40 21q5 -20 10 -35t15 -33q-33 -11 -55 -19t-41 -17t-39 -20z" />
<glyph unicode="&#xd4;" horiz-adv-x="569" d="M544 318q0 -198 -29 -343q-32 -21 -136 -21q-8 0 -21 0.5t-27 0.5t-26 0.5t-17 0.5l-11 7q-5 0 -16.5 -0.5t-24.5 -0.5q-12 0 -23.5 -0.5t-17.5 -0.5q-86 0 -132 28q6 12 6 30q0 13 -5 38l-12 53l-12 52q-6 25 -6 37q0 60 4 121.5t12 127.5q20 173 58 232q13 21 237 21 q146 0 166 -9q7 -3 13 -34t10.5 -82t7 -117.5t2.5 -140.5zM452 283q0 63 -7 139.5t-21 167.5q-6 0 -29.5 1.5t-53 4t-59 4t-47.5 1.5q-51 0 -76.5 -65.5t-25.5 -183.5q0 -41 4 -85.5t11.5 -84.5t17.5 -70.5t22 -44.5q48 -6 126 -6q97 0 112 15q26 86 26 207zM397 733 q-60 27 -96 66q-22 -17 -48 -33.5t-57 -33.5q-10 22 -41 56q74 30 148 83q68 -53 140 -89l-22 -25q-12 -13 -24 -24z" />
<glyph unicode="&#xd5;" horiz-adv-x="569" d="M544 318q0 -198 -29 -343q-32 -21 -136 -21q-8 0 -21 0.5t-27 0.5t-26 0.5t-17 0.5l-11 7q-5 0 -16.5 -0.5t-24.5 -0.5q-12 0 -23.5 -0.5t-17.5 -0.5q-86 0 -132 28q6 12 6 30q0 13 -5 38l-12 53l-12 52q-6 25 -6 37q0 60 4 121.5t12 127.5q20 173 58 232q13 21 237 21 q146 0 166 -9q7 -3 13 -34t10.5 -82t7 -117.5t2.5 -140.5zM452 283q0 63 -7 139.5t-21 167.5q-6 0 -29.5 1.5t-53 4t-59 4t-47.5 1.5q-51 0 -76.5 -65.5t-25.5 -183.5q0 -41 4 -85.5t11.5 -84.5t17.5 -70.5t22 -44.5q48 -6 126 -6q97 0 112 15q26 86 26 207zM400 840 q13 -12 27 -23.5t30 -22.5q-28 -53 -72 -56q-4 -1 -9 -1q-40 0 -85 25q-26 8 -41.5 11t-25.5 -0.5t-16.5 -15t-14.5 -32.5q-14 11 -29.5 21.5t-32.5 18.5q17 40 60 62q17 9 38 9q36 0 84 -24q28 -12 46 -12h8q19 5 33 40z" />
<glyph unicode="&#xd6;" horiz-adv-x="569" d="M544 318q0 -198 -29 -343q-32 -21 -136 -21q-8 0 -21 0.5t-27 0.5t-26 0.5t-17 0.5l-11 7q-5 0 -16.5 -0.5t-24.5 -0.5q-12 0 -23.5 -0.5t-17.5 -0.5q-86 0 -132 28q6 12 6 30q0 13 -5 38l-12 53l-12 52q-6 25 -6 37q0 60 4 121.5t12 127.5q20 173 58 232q13 21 237 21 q146 0 166 -9q7 -3 13 -34t10.5 -82t7 -117.5t2.5 -140.5zM452 283q0 63 -7 139.5t-21 167.5q-6 0 -29.5 1.5t-53 4t-59 4t-47.5 1.5q-51 0 -76.5 -65.5t-25.5 -183.5q0 -41 4 -85.5t11.5 -84.5t17.5 -70.5t22 -44.5q48 -6 126 -6q97 0 112 15q26 86 26 207zM424 745 q-12 -3 -19.5 -4t-15.5 -1t-20 1t-33 2q-3 24 -3.5 35.5t-0.5 24.5v16q0 7 1 8q19 4 30.5 5.5t20.5 1t18 -2.5t24 -5q2 -20 3 -31t1 -19q0 -7 -1.5 -13.5t-4.5 -17.5zM253 748q-18 -5 -27.5 -6.5t-28.5 -1.5h-23q-9 0 -10 1q-3 24 -3.5 35.5t-0.5 24.5v16q0 7 1 8 q20 4 31.5 6.5t20.5 2.5q2 1 4 1l14 -1q9 -2 24 -5q2 -20 3 -31t1 -19q0 -7 -1.5 -13.5t-4.5 -17.5z" />
<glyph unicode="&#xd8;" horiz-adv-x="569" d="M570 722q-8 -15 -20 -34l-24 -43q8 -48 13 -135.5t5 -191.5q0 -198 -29 -343q-32 -21 -136 -21q-57 0 -120 2t-112 8q-5 -13 -10 -24t-9 -21q-34 3 -59.5 4.5t-48.5 1.5q12 19 24.5 41.5t24.5 49.5q-7 17 -13.5 43t-11 53t-7.5 50.5t-3 36.5q0 30 1.5 71.5t5.5 88 t9.5 94.5t14 91t19 78.5t24.5 57.5q13 21 237 21q31 0 56 -0.5t45 -1.5q7 16 11.5 29.5t7.5 24.5q11 -2 37 -10zM133 352q0 -48 5 -97.5t14 -91.5l64 110l65 111l61 108q30 53 54 100q-17 1 -39 2l-45 4q-23 1 -43.5 2t-33.5 1q-51 0 -76.5 -65.5t-25.5 -183.5zM452 283 q0 90 -15 210l-62 -107l-63 -110l-60 -110l-54 -101q23 -2 52 -3t64 -1q97 0 112 15q26 86 26 207z" />
<glyph unicode="&#xd9;" horiz-adv-x="673" d="M34 651q4 -1 8 -1h8h17h24l33 2h34q16 1 24 1q67 0 113 -17q-23 -50 -45 -248q-21 -180 -21 -259q0 -42 26.5 -67.5t84.5 -28.5q63 -4 99.5 -6t50.5 -2q15 0 28.5 35t24.5 106t17.5 179.5t6.5 254.5q32 -10 52.5 -11.5t32 -5t15.5 -14t4 -38.5q0 -6 -2 -31l-5 -64l-7 -86 l-8 -98q-4 -50 -9 -100l-8 -91l-6 -73l-3 -44q0 -7 -19 -10.5t-44.5 -5.5t-51 -2.5t-38.5 -0.5q-70 0 -140 6q-14 1 -41 8l-57 15l-56 16q-27 8 -40 10q-13 13 -13 98q0 34 2 81t5 98l6 101l7 92l5 66q2 26 2 28q-25 5 -39 5q-52 0 -86 -30q17 79 17 95q0 18 -8 37zM525 655 q-45 27 -89.5 48t-92.5 35q20 26 25 68q49 -28 95 -49t91 -37q-10 -15 -17 -31.5t-12 -33.5z" />
<glyph unicode="&#xda;" horiz-adv-x="673" d="M34 651q4 -1 8 -1h8h17h24l33 2h34q16 1 24 1q67 0 113 -17q-23 -50 -45 -248q-21 -180 -21 -259q0 -42 26.5 -67.5t84.5 -28.5q63 -4 99.5 -6t50.5 -2q15 0 28.5 35t24.5 106t17.5 179.5t6.5 254.5q32 -10 52.5 -11.5t32 -5t15.5 -14t4 -38.5q0 -6 -2 -31l-5 -64l-7 -86 l-8 -98q-4 -50 -9 -100l-8 -91l-6 -73l-3 -44q0 -7 -19 -10.5t-44.5 -5.5t-51 -2.5t-38.5 -0.5q-70 0 -140 6q-14 1 -41 8l-57 15l-56 16q-27 8 -40 10q-13 13 -13 98q0 34 2 81t5 98l6 101l7 92l5 66q2 26 2 28q-25 5 -39 5q-52 0 -86 -30q17 79 17 95q0 18 -8 37zM367 652 q-5 17 -11.5 30.5t-17.5 34.5l64 27l44 20q20 9 38 18l40 21q5 -20 10 -35t15 -33q-33 -11 -55 -19t-41 -17t-39 -20z" />
<glyph unicode="&#xdb;" horiz-adv-x="673" d="M34 651q4 -1 8 -1h8h17h24l33 2h34q16 1 24 1q67 0 113 -17q-23 -50 -45 -248q-21 -180 -21 -259q0 -42 26.5 -67.5t84.5 -28.5q63 -4 99.5 -6t50.5 -2q15 0 28.5 35t24.5 106t17.5 179.5t6.5 254.5q32 -10 52.5 -11.5t32 -5t15.5 -14t4 -38.5q0 -6 -2 -31l-5 -64l-7 -86 l-8 -98q-4 -50 -9 -100l-8 -91l-6 -73l-3 -44q0 -7 -19 -10.5t-44.5 -5.5t-51 -2.5t-38.5 -0.5q-70 0 -140 6q-14 1 -41 8l-57 15l-56 16q-27 8 -40 10q-13 13 -13 98q0 34 2 81t5 98l6 101l7 92l5 66q2 26 2 28q-25 5 -39 5q-52 0 -86 -30q17 79 17 95q0 18 -8 37zM541 692 q-60 27 -96 66q-22 -17 -48 -33.5t-57 -33.5q-10 22 -41 56q74 30 148 83q68 -53 140 -89l-22 -25q-12 -13 -24 -24z" />
<glyph unicode="&#xdc;" horiz-adv-x="673" d="M34 651q4 -1 8 -1h8h17h24l33 2h34q16 1 24 1q67 0 113 -17q-23 -50 -45 -248q-21 -180 -21 -259q0 -42 26.5 -67.5t84.5 -28.5q63 -4 99.5 -6t50.5 -2q15 0 28.5 35t24.5 106t17.5 179.5t6.5 254.5q32 -10 52.5 -11.5t32 -5t15.5 -14t4 -38.5q0 -6 -2 -31l-5 -64l-7 -86 l-8 -98q-4 -50 -9 -100l-8 -91l-6 -73l-3 -44q0 -7 -19 -10.5t-44.5 -5.5t-51 -2.5t-38.5 -0.5q-70 0 -140 6q-14 1 -41 8l-57 15l-56 16q-27 8 -40 10q-13 13 -13 98q0 34 2 81t5 98l6 101l7 92l5 66q2 26 2 28q-25 5 -39 5q-52 0 -86 -30q17 79 17 95q0 18 -8 37zM570 704 q-12 -3 -19.5 -4t-15.5 -1t-20 1t-33 2q-3 24 -3.5 35.5t-0.5 24.5v16q0 7 1 8q19 4 30.5 5.5t20.5 1t18 -2.5t24 -5q2 -20 3 -31t1 -19q0 -7 -1.5 -13.5t-4.5 -17.5zM399 707q-18 -5 -27.5 -6.5t-28.5 -1.5h-23q-9 0 -10 1q-3 24 -3.5 35.5t-0.5 24.5v16q0 7 1 8 q20 4 31.5 6.5t20.5 2.5q2 1 4 1l14 -1q9 -2 24 -5q2 -20 3 -31t1 -19q0 -7 -1.5 -13.5t-4.5 -17.5z" />
<glyph unicode="&#xdd;" horiz-adv-x="601" d="M601 679q-7 -12 -23 -35l-38 -52l-46 -64l-48 -65l-40 -60.5t-27 -48.5q-6 -14 -13.5 -52t-14.5 -84t-11.5 -91t-4.5 -73q0 -36 6 -52q-51 3 -80 3q-55 0 -75 -10q6 12 14 37.5t16 57.5l16 70q9 36 15 69.5t10 61.5t4 44q0 15 -12.5 44t-31.5 66t-43 78l-44 80l-39 72 q-17 33 -24 53q13 -4 48 -6.5t93 -4.5q6 -25 24 -64t38 -77l36 -68q17 -29 20 -35l45 70l43 67q19 33 33 60.5t19 47.5q10 -2 135 -39zM269 743q-5 17 -11.5 30.5t-17.5 34.5l64 27l44 20q20 9 38 18l40 21q5 -20 10 -35t15 -33q-33 -11 -55 -19t-41 -17t-39 -20z" />
<glyph unicode="&#xde;" horiz-adv-x="561" d="M555 338q0 -151 -63 -311q-30 -3 -65 -3q-20 0 -56 2l-73 4q-38 2 -70.5 4.5t-44.5 3.5q-14 -1 -19.5 -10.5t-5.5 -23.5q0 -13 4.5 -26t11.5 -21q-29 -3 -63 -3q-5 1 -10 1h-12h-28h-18q-10 0 -21 1q0 8 1.5 40.5t3.5 80.5t5 107.5t6.5 121t6.5 121.5t5 109l4 82 q1 33 1 42q21 0 43 5.5t41 5.5q14 0 26 -5.5t12 -26.5q0 -12 -2 -28t-2 -31q0 -14 3 -22.5t13 -12.5t30 -5t54 -1q35 0 74.5 1.5t74.5 3t60.5 3t32.5 1.5q40 -92 40 -210zM461 326q0 83 -12 101q-40 5 -91 7.5t-114 2.5q-66 0 -78 -21q0 -1 -2.5 -20t-6 -49t-6 -68t-2.5 -77 q0 -36 7 -51h248q27 0 42 48t15 127z" />
<glyph unicode="&#xdf;" horiz-adv-x="1192" d="M596 235q0 -112 -55 -171t-161 -59q-122 0 -300 36q1 39 1.5 61.5t2 35.5t5 19.5t9.5 11.5q103 -57 249 -57q87 0 141 27q7 32 7 62q0 113 -128 113q-13 0 -39 -2t-54 -4.5t-54 -4.5t-39 -2q-58 0 -90 17q-31 16 -31 145q0 66 11.5 115.5t42.5 82.5t85.5 49.5t140.5 16.5 q48 0 100 -6t112 -17q-1 -35 -2 -56t-2.5 -33t-4.5 -18t-9 -10q-72 39 -180 39q-112 0 -191 -40q-6 -35 -6 -63q0 -112 126 -112q13 0 39 2t54.5 5t54.5 5t39 2q55 0 91 -17q5 -3 11 -24.5t11.5 -49.5t9 -56t3.5 -43zM1178 310q0 -71 -10 -124.5t-38.5 -89.5t-80.5 -54 t-135 -18q-100 0 -236 32q3 35 4.5 55.5t3 32.5t5 17.5t9.5 10.5q76 -45 197 -45q99 0 173 33q9 40 9 70q0 57 -31.5 83t-106.5 26q-10 0 -31.5 -1t-45.5 -2.5t-46 -2.5t-32 -1q-71 0 -106 20q-5 3 -10 21.5t-9.5 43t-7.5 50.5t-3 43q0 118 54 178t157 60q121 0 312 -46 q-1 -22 -3 -43t-5 -38.5t-6.5 -29.5t-8.5 -16q-110 65 -264 65q-78 0 -125 -22q-9 -39 -9 -69q0 -57 32.5 -83.5t107.5 -26.5q10 0 31.5 1t45 2.5t45 2.5t32.5 1q43 0 69 -4.5t40 -19t18.5 -41.5t4.5 -71z" />
<glyph unicode="&#xe0;" horiz-adv-x="584" d="M583 32q-10 -5 -29.5 -11t-39.5 -11l-38 -10q-18 -4 -24 -6q-7 23 -13.5 65t-29.5 103q-63 1 -120 3t-112 7q-11 -17 -20 -44t-16 -55t-11.5 -51t-5.5 -32q-57 19 -82 19q-17 0 -25 -4q1 6 7 34l16 70l20 94l24 106l24 105l22 94l16 70q7 27 9 33q6 23 15 51l19 62 q57 -6 100.5 -12t74.5 -11q0 -51 4 -96t14 -85t26 -84l38 -94q1 -3 11 -26l25 -58l31 -72l32 -72l25 -57q11 -23 13 -25zM263 572q-9 -25 -18 -58t-17.5 -69.5t-16.5 -76.5l-16 -77q15 -21 58 -21q33 0 53.5 2.5t32.5 8.5t16.5 16t4.5 25q0 17 -8.5 40.5t-21.5 53.5l-32 70 q-17 38 -35 86zM368 732q-45 27 -89.5 48t-92.5 35q20 26 25 68q49 -28 95 -49t91 -37q-10 -15 -17 -31.5t-12 -33.5z" />
<glyph unicode="&#xe1;" horiz-adv-x="584" d="M583 32q-10 -5 -29.5 -11t-39.5 -11l-38 -10q-18 -4 -24 -6q-7 23 -13.5 65t-29.5 103q-63 1 -120 3t-112 7q-11 -17 -20 -44t-16 -55t-11.5 -51t-5.5 -32q-57 19 -82 19q-17 0 -25 -4q1 6 7 34l16 70l20 94l24 106l24 105l22 94l16 70q7 27 9 33q6 23 15 51l19 62 q57 -6 100.5 -12t74.5 -11q0 -51 4 -96t14 -85t26 -84l38 -94q1 -3 11 -26l25 -58l31 -72l32 -72l25 -57q11 -23 13 -25zM263 572q-9 -25 -18 -58t-17.5 -69.5t-16.5 -76.5l-16 -77q15 -21 58 -21q33 0 53.5 2.5t32.5 8.5t16.5 16t4.5 25q0 17 -8.5 40.5t-21.5 53.5l-32 70 q-17 38 -35 86zM198 740q-5 17 -11.5 30.5t-17.5 34.5l64 27l44 20q20 9 38 18l40 21q5 -20 10 -35t15 -33q-33 -11 -55 -19t-41 -17t-39 -20z" />
<glyph unicode="&#xe2;" horiz-adv-x="584" d="M583 32q-10 -5 -29.5 -11t-39.5 -11l-38 -10q-18 -4 -24 -6q-7 23 -13.5 65t-29.5 103q-63 1 -120 3t-112 7q-11 -17 -20 -44t-16 -55t-11.5 -51t-5.5 -32q-57 19 -82 19q-17 0 -25 -4q1 6 7 34l16 70l20 94l24 106l24 105l22 94l16 70q7 27 9 33q6 23 15 51l19 62 q57 -6 100.5 -12t74.5 -11q0 -51 4 -96t14 -85t26 -84l38 -94q1 -3 11 -26l25 -58l31 -72l32 -72l25 -57q11 -23 13 -25zM263 572q-9 -25 -18 -58t-17.5 -69.5t-16.5 -76.5l-16 -77q15 -21 58 -21q33 0 53.5 2.5t32.5 8.5t16.5 16t4.5 25q0 17 -8.5 40.5t-21.5 53.5l-32 70 q-17 38 -35 86zM378 755q-60 27 -96 66q-22 -17 -48 -33.5t-57 -33.5q-10 22 -41 56q74 30 148 83q68 -53 140 -89l-22 -25q-12 -13 -24 -24z" />
<glyph unicode="&#xe3;" horiz-adv-x="584" d="M583 32q-10 -5 -29.5 -11t-39.5 -11l-38 -10q-18 -4 -24 -6q-7 23 -13.5 65t-29.5 103q-63 1 -120 3t-112 7q-11 -17 -20 -44t-16 -55t-11.5 -51t-5.5 -32q-57 19 -82 19q-17 0 -25 -4q1 6 7 34l16 70l20 94l24 106l24 105l22 94l16 70q7 27 9 33q6 23 15 51l19 62 q57 -6 100.5 -12t74.5 -11q0 -51 4 -96t14 -85t26 -84l38 -94q1 -3 11 -26l25 -58l31 -72l32 -72l25 -57q11 -23 13 -25zM263 572q-9 -25 -18 -58t-17.5 -69.5t-16.5 -76.5l-16 -77q15 -21 58 -21q33 0 53.5 2.5t32.5 8.5t16.5 16t4.5 25q0 17 -8.5 40.5t-21.5 53.5l-32 70 q-17 38 -35 86zM386 850q13 -12 27 -23.5t30 -22.5q-28 -53 -72 -56q-4 -1 -9 -1q-40 0 -85 25q-26 8 -41.5 11t-25.5 -0.5t-16.5 -15t-14.5 -32.5q-14 11 -29.5 21.5t-32.5 18.5q17 40 60 62q17 9 38 9q36 0 84 -24q28 -12 46 -12h8q19 5 33 40z" />
<glyph unicode="&#xe4;" horiz-adv-x="584" d="M583 32q-10 -5 -29.5 -11t-39.5 -11l-38 -10q-18 -4 -24 -6q-7 23 -13.5 65t-29.5 103q-63 1 -120 3t-112 7q-11 -17 -20 -44t-16 -55t-11.5 -51t-5.5 -32q-57 19 -82 19q-17 0 -25 -4q1 6 7 34l16 70l20 94l24 106l24 105l22 94l16 70q7 27 9 33q6 23 15 51l19 62 q57 -6 100.5 -12t74.5 -11q0 -51 4 -96t14 -85t26 -84l38 -94q1 -3 11 -26l25 -58l31 -72l32 -72l25 -57q11 -23 13 -25zM263 572q-9 -25 -18 -58t-17.5 -69.5t-16.5 -76.5l-16 -77q15 -21 58 -21q33 0 53.5 2.5t32.5 8.5t16.5 16t4.5 25q0 17 -8.5 40.5t-21.5 53.5l-32 70 q-17 38 -35 86zM403 757q-12 -3 -19.5 -4t-15.5 -1t-20 1t-33 2q-3 24 -3.5 35.5t-0.5 24.5v16q0 7 1 8q19 4 30.5 5.5t20.5 1t18 -2.5t24 -5q2 -20 3 -31t1 -19q0 -7 -1.5 -13.5t-4.5 -17.5zM232 760q-18 -5 -27.5 -6.5t-28.5 -1.5h-23q-9 0 -10 1q-3 24 -3.5 35.5 t-0.5 24.5v16q0 7 1 8q20 4 31.5 6.5t20.5 2.5q2 1 4 1l14 -1q9 -2 24 -5q2 -20 3 -31t1 -19q0 -7 -1.5 -13.5t-4.5 -17.5z" />
<glyph unicode="&#xe5;" horiz-adv-x="584" d="M583 32q-10 -5 -29.5 -11t-39.5 -11l-38 -10q-18 -4 -24 -6q-7 23 -13.5 65t-29.5 103q-63 1 -120 3t-112 7q-11 -17 -20 -44t-16 -55t-11.5 -51t-5.5 -32q-57 19 -82 19q-17 0 -25 -4q1 6 7 34l16 70l20 94l24 106l24 105l22 94l16 70q7 27 9 33q6 23 15 51l19 62 q57 -6 100.5 -12t74.5 -11q0 -51 4 -96t14 -85t26 -84l38 -94q1 -3 11 -26l25 -58l31 -72l32 -72l25 -57q11 -23 13 -25zM263 572q-9 -25 -18 -58t-17.5 -69.5t-16.5 -76.5l-16 -77q15 -21 58 -21q33 0 53.5 2.5t32.5 8.5t16.5 16t4.5 25q0 17 -8.5 40.5t-21.5 53.5l-32 70 q-17 38 -35 86zM228.609 813.698q0 -59.4385 56.499 -59.4385q58.7295 0 58.7295 59.4385q0 62.4102 -55.7559 62.4102q-35.6836 0 -47.5781 -13.7451t-11.8945 -48.665zM385.469 818.156q0 -46.8086 -27.5059 -72.0693q-25.2764 -23.0322 -68.3936 -23.0322 q-101.104 0 -101.104 83.9561q0 53.4951 23.0459 77.2705q23.0449 23.7754 74.3398 23.7754q99.6172 0 99.6172 -89.9004z" />
<glyph unicode="&#xe6;" horiz-adv-x="781" d="M731 435q-2 -45 -5 -72t-5 -38q-14 -3 -45 -6t-67.5 -7.5t-74 -11.5t-63.5 -17q0 -52 2.5 -86t9 -54t18 -28t29.5 -8t47.5 2.5t59.5 6t54.5 6t32.5 2.5v-101q-36 -6 -81.5 -9.5t-92 -8t-92 -12t-81.5 -20.5q-2 57 -3 105l-2 94q-10 -1 -20 -1h-21h-45h-52h-28 q-14 0 -29 1q-11 -17 -20 -44t-16 -55t-11.5 -51t-5.5 -32q-45 16 -87 16q-5 0 -10 -0.5t-10 -0.5q1 6 12 45.5t32 123.5l53 218l75 332q9 -1 28 -4.5t51 -7t78 -6.5t109 -3q115 0 183.5 3.5t86.5 3.5q-2 -8 -2.5 -30.5t-1.5 -60.5q-27 0 -61.5 -3t-60.5 -6q-45 -6 -72 -8 t-42 -10t-20 -26.5t-5 -56.5q0 -70 30 -97q7 0 9.5 0.5t6.5 2t14.5 3t35 4t66.5 6t109 7.5zM263 572q-9 -26 -18 -58.5t-17.5 -69.5t-16.5 -76l-16 -77q35 -11 77.5 -16t96.5 -5q-2 74 -7 142t-15 146q-20 5 -41 8.5t-43 5.5z" />
<glyph unicode="&#xe7;" horiz-adv-x="564" d="M564 682q0 -75 -20 -118q-73 43 -189 43q-106 0 -182 -36q-10 -49 -14.5 -123.5t-4.5 -174.5q0 -52 4.5 -82t17 -45t33.5 -19t54 -4q10 0 32 1t46 3q25 2 66.5 3.5t107.5 7.5q15 -34 17 -118q-36 0 -73.5 -5t-66.5 -5q-21 0 -50.5 1t-61.5 3l-65 2q-32 2 -59 4l-44 2 q-18 1 -21 1q-13 0 -19 68.5t-6 186.5q0 176 6 254q13 177 267 177q100 0 225 -27zM294 11v-17q0 -14 4.5 -18t15.5 -6q12 -2 24.5 -6.5t22.5 -14.5t16.5 -28t6.5 -47q0 -27 -8 -43.5t-22.5 -25.5t-34 -12t-43.5 -3q-14 0 -29.5 3t-29 11t-24 21t-13.5 33q10 2 15 4t9 4.5 t9 5t16 5.5q4 -21 17.5 -30t35.5 -10q25 0 37.5 10t12.5 37q0 20 -10 27.5t-27 12.5q-21 7 -38.5 22t-17.5 50v16z" />
<glyph unicode="&#xe8;" horiz-adv-x="454" d="M454 408q0 -54 -10 -98q-3 -4 -26 -5.5t-56.5 -3.5t-71.5 -4t-70.5 -5.5t-54 -9t-21.5 -14.5q0 -56 3 -91.5t11 -55t21 -26.5t34 -7q3 0 28 3t60 6.5t74.5 7t71.5 4.5q-1 -7 -1.5 -14t-0.5 -14v-25v-25q0 -6 0.5 -12t1.5 -11q-5 -4 -29 -6.5t-61 -5t-84.5 -4t-99.5 -2.5 q-17 -1 -47.5 -8.5t-75.5 -23.5q-2 79 -3.5 144t-3.5 123t-4.5 111t-7.5 108t-12.5 115t-18.5 131q21 -2 43.5 -3t46.5 -1q20 0 59.5 1.5t83.5 4t83.5 4t59.5 1.5q19 0 37 -0.5t35 -1.5q-3 -15 -4 -30t-1 -31v-15q0 -10 1 -15q-27 0 -62 -2l-79 -6q-56 -4 -89.5 -6 t-51.5 -10t-23.5 -27.5t-5.5 -58.5q0 -70 30 -97q-1 0 14.5 1.5t40.5 4.5t57 5.5t64.5 5.5t62.5 4.5t52 1.5v-12zM305 720q-45 27 -89.5 48t-92.5 35q20 26 25 68q49 -28 95 -49t91 -37q-10 -15 -17 -31.5t-12 -33.5z" />
<glyph unicode="&#xe9;" horiz-adv-x="454" d="M454 408q0 -54 -10 -98q-3 -4 -26 -5.5t-56.5 -3.5t-71.5 -4t-70.5 -5.5t-54 -9t-21.5 -14.5q0 -56 3 -91.5t11 -55t21 -26.5t34 -7q3 0 28 3t60 6.5t74.5 7t71.5 4.5q-1 -7 -1.5 -14t-0.5 -14v-25v-25q0 -6 0.5 -12t1.5 -11q-5 -4 -29 -6.5t-61 -5t-84.5 -4t-99.5 -2.5 q-17 -1 -47.5 -8.5t-75.5 -23.5q-2 79 -3.5 144t-3.5 123t-4.5 111t-7.5 108t-12.5 115t-18.5 131q21 -2 43.5 -3t46.5 -1q20 0 59.5 1.5t83.5 4t83.5 4t59.5 1.5q19 0 37 -0.5t35 -1.5q-3 -15 -4 -30t-1 -31v-15q0 -10 1 -15q-27 0 -62 -2l-79 -6q-56 -4 -89.5 -6 t-51.5 -10t-23.5 -27.5t-5.5 -58.5q0 -70 30 -97q-1 0 14.5 1.5t40.5 4.5t57 5.5t64.5 5.5t62.5 4.5t52 1.5v-12zM152 720q-5 17 -11.5 30.5t-17.5 34.5l64 27l44 20q20 9 38 18l40 21q5 -20 10 -35t15 -33q-33 -11 -55 -19t-41 -17t-39 -20z" />
<glyph unicode="&#xea;" horiz-adv-x="454" d="M454 408q0 -54 -10 -98q-3 -4 -26 -5.5t-56.5 -3.5t-71.5 -4t-70.5 -5.5t-54 -9t-21.5 -14.5q0 -56 3 -91.5t11 -55t21 -26.5t34 -7q3 0 28 3t60 6.5t74.5 7t71.5 4.5q-1 -7 -1.5 -14t-0.5 -14v-25v-25q0 -6 0.5 -12t1.5 -11q-5 -4 -29 -6.5t-61 -5t-84.5 -4t-99.5 -2.5 q-17 -1 -47.5 -8.5t-75.5 -23.5q-2 79 -3.5 144t-3.5 123t-4.5 111t-7.5 108t-12.5 115t-18.5 131q21 -2 43.5 -3t46.5 -1q20 0 59.5 1.5t83.5 4t83.5 4t59.5 1.5q19 0 37 -0.5t35 -1.5q-3 -15 -4 -30t-1 -31v-15q0 -10 1 -15q-27 0 -62 -2l-79 -6q-56 -4 -89.5 -6 t-51.5 -10t-23.5 -27.5t-5.5 -58.5q0 -70 30 -97q-1 0 14.5 1.5t40.5 4.5t57 5.5t64.5 5.5t62.5 4.5t52 1.5v-12zM326 730q-60 27 -96 66q-22 -17 -48 -33.5t-57 -33.5q-10 22 -41 56q74 30 148 83q68 -53 140 -89l-22 -25q-12 -13 -24 -24z" />
<glyph unicode="&#xeb;" horiz-adv-x="454" d="M454 408q0 -54 -10 -98q-3 -4 -26 -5.5t-56.5 -3.5t-71.5 -4t-70.5 -5.5t-54 -9t-21.5 -14.5q0 -56 3 -91.5t11 -55t21 -26.5t34 -7q3 0 28 3t60 6.5t74.5 7t71.5 4.5q-1 -7 -1.5 -14t-0.5 -14v-25v-25q0 -6 0.5 -12t1.5 -11q-5 -4 -29 -6.5t-61 -5t-84.5 -4t-99.5 -2.5 q-17 -1 -47.5 -8.5t-75.5 -23.5q-2 79 -3.5 144t-3.5 123t-4.5 111t-7.5 108t-12.5 115t-18.5 131q21 -2 43.5 -3t46.5 -1q20 0 59.5 1.5t83.5 4t83.5 4t59.5 1.5q19 0 37 -0.5t35 -1.5q-3 -15 -4 -30t-1 -31v-15q0 -10 1 -15q-27 0 -62 -2l-79 -6q-56 -4 -89.5 -6 t-51.5 -10t-23.5 -27.5t-5.5 -58.5q0 -70 30 -97q-1 0 14.5 1.5t40.5 4.5t57 5.5t64.5 5.5t62.5 4.5t52 1.5v-12zM357 727q-12 -3 -19.5 -4t-15.5 -1t-20 1t-33 2q-3 24 -3.5 35.5t-0.5 24.5v16q0 7 1 8q19 4 30.5 5.5t20.5 1t18 -2.5t24 -5q2 -20 3 -31t1 -19 q0 -7 -1.5 -13.5t-4.5 -17.5zM186 730q-18 -5 -27.5 -6.5t-28.5 -1.5h-23q-9 0 -10 1q-3 24 -3.5 35.5t-0.5 24.5v16q0 7 1 8q20 4 31.5 6.5t20.5 2.5q2 1 4 1l14 -1q9 -2 24 -5q2 -20 3 -31t1 -19q0 -7 -1.5 -13.5t-4.5 -17.5z" />
<glyph unicode="&#xec;" horiz-adv-x="176" d="M159 15q-23 2 -46.5 3.5t-47.5 1.5h-20q-3 8 -6.5 46t-6.5 93t-6 119.5t-5 125.5t-3.5 111.5t-1.5 76.5q0 34 11.5 51t27.5 24t33 8t29 3q-3 -45 -3 -120q0 -129 6.5 -228.5t15 -168t15.5 -105.5t8 -41zM166 720q-45 27 -89.5 48t-92.5 35q20 26 25 68q49 -28 95 -49 t91 -37q-10 -15 -17 -31.5t-12 -33.5z" />
<glyph unicode="&#xed;" horiz-adv-x="176" d="M159 15q-23 2 -46.5 3.5t-47.5 1.5h-20q-3 8 -6.5 46t-6.5 93t-6 119.5t-5 125.5t-3.5 111.5t-1.5 76.5q0 34 11.5 51t27.5 24t33 8t29 3q-3 -45 -3 -120q0 -129 6.5 -228.5t15 -168t15.5 -105.5t8 -41zM13 720q-5 17 -11.5 30.5t-17.5 34.5l64 27l44 20q20 9 38 18 l40 21q5 -20 10 -35t15 -33q-33 -11 -55 -19t-41 -17t-39 -20z" />
<glyph unicode="&#xee;" horiz-adv-x="176" d="M159 15q-23 2 -46.5 3.5t-47.5 1.5h-20q-3 8 -6.5 46t-6.5 93t-6 119.5t-5 125.5t-3.5 111.5t-1.5 76.5q0 34 11.5 51t27.5 24t33 8t29 3q-3 -45 -3 -120q0 -129 6.5 -228.5t15 -168t15.5 -105.5t8 -41zM187 730q-60 27 -96 66q-22 -17 -48 -33.5t-57 -33.5 q-10 22 -41 56q74 30 148 83q68 -53 140 -89l-22 -25q-12 -13 -24 -24z" />
<glyph unicode="&#xef;" horiz-adv-x="176" d="M159 15q-23 2 -46.5 3.5t-47.5 1.5h-20q-3 8 -6.5 46t-6.5 93t-6 119.5t-5 125.5t-3.5 111.5t-1.5 76.5q0 34 11.5 51t27.5 24t33 8t29 3q-3 -45 -3 -120q0 -129 6.5 -228.5t15 -168t15.5 -105.5t8 -41zM218 727q-12 -3 -19.5 -4t-15.5 -1t-20 1t-33 2q-3 24 -3.5 35.5 t-0.5 24.5v16q0 7 1 8q19 4 30.5 5.5t20.5 1t18 -2.5t24 -5q2 -20 3 -31t1 -19q0 -7 -1.5 -13.5t-4.5 -17.5zM47 730q-18 -5 -27.5 -6.5t-28.5 -1.5h-23q-9 0 -10 1q-3 24 -3.5 35.5t-0.5 24.5v16q0 7 1 8q20 4 31.5 6.5t20.5 2.5q2 1 4 1l14 -1q9 -2 24 -5q2 -20 3 -31 t1 -19q0 -7 -1.5 -13.5t-4.5 -17.5z" />
<glyph unicode="&#xf0;" horiz-adv-x="670" d="M659 298q0 -13 -3 -44.5t-9.5 -70.5t-15.5 -80.5t-21 -73.5q-2 -5 -24.5 -10.5t-53.5 -9.5t-64 -6.5t-57 -2.5h-255q-39 0 -39 41q0 12 1.5 18t3.5 25t4 60.5t4 124.5q-3 1 -10 1h-8q-54 0 -74 -14v25q0 57 3 96l8 -1q8 -1 21 -3t29.5 -4t32.5 -3l2 68q1 34 1.5 61.5 t0.5 48.5v31q-47 24 -80 24q-19 0 -34 -4v121l236 -18l332 -29q1 -12 6 -38l14 -60l16 -73q9 -38 16 -75.5t12 -70t5 -54.5zM391 255q-14 -3 -35 -3q-18 0 -56 3t-80 7v-4v-35q0 -16 0.5 -33.5t0.5 -33.5t0.5 -28.5t0.5 -16.5l16 -12q9 0 26.5 -1t37.5 -1.5t38.5 -1.5 t27.5 -1q183 0 183 130q0 143 -51 350q-158 28 -225 28q-12 0 -21.5 -12.5t-16.5 -40.5t-11 -73.5t-5 -111.5h170v-109z" />
<glyph unicode="&#xf1;" horiz-adv-x="668" d="M637 -21q0 -33 -96 -39l-73 88l-92 115l-59 83q-28 40 -46 74q-28 52 -60.5 87.5t-69.5 55.5q-13 -25 -13 -77v-49q0 -11 0.5 -21.5t1.5 -20.5q1 -14 3.5 -41.5t6.5 -62.5l7 -73l7 -72q4 -34 6.5 -60.5t3.5 -38.5q-17 2 -34 3.5t-35 1.5q-28 0 -58 -3q0 15 -1 52.5 t-2.5 89t-3.5 112.5l-4 123l-4 122l-5 109q-2 49 -3.5 82t-2.5 43q28 5 54.5 7.5t51.5 2.5h13q14 -29 31 -58l36 -57q3 -5 19 -27l35 -48l37 -50l23 -32q37 -49 79 -94.5t90 -90.5l21 6q0 55 -7.5 124.5t-15.5 136.5l-16 122q-8 55 -8 84q28 4 53.5 6t48.5 2h22 q7 -18 11.5 -54t8.5 -96t8.5 -147.5t11.5 -209.5q4 -66 8.5 -118t10.5 -92zM385 823q13 -12 27 -23.5t30 -22.5q-28 -53 -72 -56q-4 -1 -9 -1q-40 0 -85 25q-26 8 -41.5 11t-25.5 -0.5t-16.5 -15t-14.5 -32.5q-14 11 -29.5 21.5t-32.5 18.5q17 40 60 62q17 9 38 9 q36 0 84 -24q28 -12 46 -12h8q19 5 33 40z" />
<glyph unicode="&#xf2;" horiz-adv-x="658" d="M649 459q0 -75 -6 -148t-17 -148q0 -3 -5.5 -20t-12 -40t-12 -48.5t-5.5 -44.5q0 -13 1 -16q-80 -34 -196 -34q-170 0 -300 67q-33 226 -33 327q0 216 113 386q21 1 42 1.5t42 0.5q69 0 128 -3.5t113 -8.5q10 -1 27 -6l36 -8l34 -9.5t24 -5.5q27 -99 27 -242zM528 488 q0 102 -10 131q-155 27 -199 27q-20 0 -38.5 -2t-37.5 -6q-70 -185 -70 -344q0 -137 66 -189q69 -7 107 -10.5t48 -3.5q61 0 82 18q10 8 19 46t16.5 92.5t12 118t4.5 122.5zM475 745q-45 27 -89.5 48t-92.5 35q20 26 25 68q49 -28 95 -49t91 -37q-10 -15 -17 -31.5 t-12 -33.5z" />
<glyph unicode="&#xf3;" horiz-adv-x="658" d="M649 459q0 -75 -6 -148t-17 -148q0 -3 -5.5 -20t-12 -40t-12 -48.5t-5.5 -44.5q0 -13 1 -16q-80 -34 -196 -34q-170 0 -300 67q-33 226 -33 327q0 216 113 386q21 1 42 1.5t42 0.5q69 0 128 -3.5t113 -8.5q10 -1 27 -6l36 -8l34 -9.5t24 -5.5q27 -99 27 -242zM528 488 q0 102 -10 131q-155 27 -199 27q-20 0 -38.5 -2t-37.5 -6q-70 -185 -70 -344q0 -137 66 -189q69 -7 107 -10.5t48 -3.5q61 0 82 18q10 8 19 46t16.5 92.5t12 118t4.5 122.5zM314 740q-5 17 -11.5 30.5t-17.5 34.5l64 27l44 20q20 9 38 18l40 21q5 -20 10 -35t15 -33 q-33 -11 -55 -19t-41 -17t-39 -20z" />
<glyph unicode="&#xf4;" horiz-adv-x="658" d="M649 459q0 -75 -6 -148t-17 -148q0 -3 -5.5 -20t-12 -40t-12 -48.5t-5.5 -44.5q0 -13 1 -16q-80 -34 -196 -34q-170 0 -300 67q-33 226 -33 327q0 216 113 386q21 1 42 1.5t42 0.5q69 0 128 -3.5t113 -8.5q10 -1 27 -6l36 -8l34 -9.5t24 -5.5q27 -99 27 -242zM528 488 q0 102 -10 131q-155 27 -199 27q-20 0 -38.5 -2t-37.5 -6q-70 -185 -70 -344q0 -137 66 -189q69 -7 107 -10.5t48 -3.5q61 0 82 18q10 8 19 46t16.5 92.5t12 118t4.5 122.5zM494 768q-60 27 -96 66q-22 -17 -48 -33.5t-57 -33.5q-10 22 -41 56q74 30 148 83q68 -53 140 -89 l-22 -25q-12 -13 -24 -24z" />
<glyph unicode="&#xf5;" horiz-adv-x="658" d="M649 459q0 -75 -6 -148t-17 -148q0 -3 -5.5 -20t-12 -40t-12 -48.5t-5.5 -44.5q0 -13 1 -16q-80 -34 -196 -34q-170 0 -300 67q-33 226 -33 327q0 216 113 386q21 1 42 1.5t42 0.5q69 0 128 -3.5t113 -8.5q10 -1 27 -6l36 -8l34 -9.5t24 -5.5q27 -99 27 -242zM528 488 q0 102 -10 131q-155 27 -199 27q-20 0 -38.5 -2t-37.5 -6q-70 -185 -70 -344q0 -137 66 -189q69 -7 107 -10.5t48 -3.5q61 0 82 18q10 8 19 46t16.5 92.5t12 118t4.5 122.5zM502 888q13 -12 27 -23.5t30 -22.5q-28 -53 -72 -56q-4 -1 -9 -1q-40 0 -85 25q-26 8 -41.5 11 t-25.5 -0.5t-16.5 -15t-14.5 -32.5q-14 11 -29.5 21.5t-32.5 18.5q17 40 60 62q17 9 38 9q36 0 84 -24q28 -12 46 -12h8q19 5 33 40z" />
<glyph unicode="&#xf6;" horiz-adv-x="658" d="M649 459q0 -75 -6 -148t-17 -148q0 -3 -5.5 -20t-12 -40t-12 -48.5t-5.5 -44.5q0 -13 1 -16q-80 -34 -196 -34q-170 0 -300 67q-33 226 -33 327q0 216 113 386q21 1 42 1.5t42 0.5q69 0 128 -3.5t113 -8.5q10 -1 27 -6l36 -8l34 -9.5t24 -5.5q27 -99 27 -242zM528 488 q0 102 -10 131q-155 27 -199 27q-20 0 -38.5 -2t-37.5 -6q-70 -185 -70 -344q0 -137 66 -189q69 -7 107 -10.5t48 -3.5q61 0 82 18q10 8 19 46t16.5 92.5t12 118t4.5 122.5zM533 777q-12 -3 -19.5 -4t-15.5 -1t-20 1t-33 2q-3 24 -3.5 35.5t-0.5 24.5v16q0 7 1 8 q19 4 30.5 5.5t20.5 1t18 -2.5t24 -5q2 -20 3 -31t1 -19q0 -7 -1.5 -13.5t-4.5 -17.5zM362 780q-18 -5 -27.5 -6.5t-28.5 -1.5h-23q-9 0 -10 1q-3 24 -3.5 35.5t-0.5 24.5v16q0 7 1 8q20 4 31.5 6.5t20.5 2.5q2 1 4 1l14 -1q9 -2 24 -5q2 -20 3 -31t1 -19q0 -7 -1.5 -13.5 t-4.5 -17.5z" />
<glyph unicode="&#xf8;" horiz-adv-x="569" d="M570 722q-8 -15 -20 -34l-24 -43q8 -48 13 -135.5t5 -191.5q0 -198 -29 -343q-32 -21 -136 -21q-57 0 -120 2t-112 8q-5 -13 -10 -24t-9 -21q-34 3 -59.5 4.5t-48.5 1.5q12 19 24.5 41.5t24.5 49.5q-7 17 -13.5 43t-11 53t-7.5 50.5t-3 36.5q0 30 1.5 71.5t5.5 88 t9.5 94.5t14 91t19 78.5t24.5 57.5q13 21 237 21q31 0 56 -0.5t45 -1.5q7 16 11.5 29.5t7.5 24.5q11 -2 37 -10zM133 352q0 -48 5 -97.5t14 -91.5l64 110l65 111l61 108q30 53 54 100q-17 1 -39 2l-45 4q-23 1 -43.5 2t-33.5 1q-51 0 -76.5 -65.5t-25.5 -183.5zM452 283 q0 90 -15 210l-62 -107l-63 -110l-60 -110l-54 -101q23 -2 52 -3t64 -1q97 0 112 15q26 86 26 207z" />
<glyph unicode="&#xf9;" horiz-adv-x="576" d="M553 -35q-74 -16 -174 -16q-85 0 -144.5 5t-88.5 11q-25 5 -42 7.5t-28.5 8.5t-17.5 18.5t-9 36.5t-3.5 63t-0.5 98q0 16 0.5 44t0.5 60q0 33 1 68.5t1 67.5q0 33 0.5 60t0.5 42q0 42 -1.5 70.5t-3.5 43.5q34 8 61 8q39 0 84 -14q-3 -10 -7.5 -39t-9 -70t-8.5 -90 t-7.5 -97t-5.5 -92t-2 -75q0 -50 4.5 -78t27.5 -41.5t71.5 -16.5t137.5 -3q81 0 81 310q0 17 -1.5 53t-3 77t-2.5 79.5t-1 60.5q33 -2 54 -2.5t33 -5t16.5 -16t4.5 -35.5q0 -5 -1 -44l-2 -96l-4.5 -127.5t-4.5 -134.5t-3.5 -118.5t-2.5 -80.5zM406 671q-45 27 -89.5 48 t-92.5 35q20 26 25 68q49 -28 95 -49t91 -37q-10 -15 -17 -31.5t-12 -33.5z" />
<glyph unicode="&#xfa;" horiz-adv-x="576" d="M553 -35q-74 -16 -174 -16q-85 0 -144.5 5t-88.5 11q-25 5 -42 7.5t-28.5 8.5t-17.5 18.5t-9 36.5t-3.5 63t-0.5 98q0 16 0.5 44t0.5 60q0 33 1 68.5t1 67.5q0 33 0.5 60t0.5 42q0 42 -1.5 70.5t-3.5 43.5q34 8 61 8q39 0 84 -14q-3 -10 -7.5 -39t-9 -70t-8.5 -90 t-7.5 -97t-5.5 -92t-2 -75q0 -50 4.5 -78t27.5 -41.5t71.5 -16.5t137.5 -3q81 0 81 310q0 17 -1.5 53t-3 77t-2.5 79.5t-1 60.5q33 -2 54 -2.5t33 -5t16.5 -16t4.5 -35.5q0 -5 -1 -44l-2 -96l-4.5 -127.5t-4.5 -134.5t-3.5 -118.5t-2.5 -80.5zM241 666q-5 17 -11.5 30.5 t-17.5 34.5l64 27l44 20q20 9 38 18l40 21q5 -20 10 -35t15 -33q-33 -11 -55 -19t-41 -17t-39 -20z" />
<glyph unicode="&#xfb;" horiz-adv-x="576" d="M553 -35q-74 -16 -174 -16q-85 0 -144.5 5t-88.5 11q-25 5 -42 7.5t-28.5 8.5t-17.5 18.5t-9 36.5t-3.5 63t-0.5 98q0 16 0.5 44t0.5 60q0 33 1 68.5t1 67.5q0 33 0.5 60t0.5 42q0 42 -1.5 70.5t-3.5 43.5q34 8 61 8q39 0 84 -14q-3 -10 -7.5 -39t-9 -70t-8.5 -90 t-7.5 -97t-5.5 -92t-2 -75q0 -50 4.5 -78t27.5 -41.5t71.5 -16.5t137.5 -3q81 0 81 310q0 17 -1.5 53t-3 77t-2.5 79.5t-1 60.5q33 -2 54 -2.5t33 -5t16.5 -16t4.5 -35.5q0 -5 -1 -44l-2 -96l-4.5 -127.5t-4.5 -134.5t-3.5 -118.5t-2.5 -80.5zM428 681q-60 27 -96 66 q-22 -17 -48 -33.5t-57 -33.5q-10 22 -41 56q74 30 148 83q68 -53 140 -89l-22 -25q-12 -13 -24 -24z" />
<glyph unicode="&#xfc;" horiz-adv-x="576" d="M553 -35q-74 -16 -174 -16q-85 0 -144.5 5t-88.5 11q-25 5 -42 7.5t-28.5 8.5t-17.5 18.5t-9 36.5t-3.5 63t-0.5 98q0 16 0.5 44t0.5 60q0 33 1 68.5t1 67.5q0 33 0.5 60t0.5 42q0 42 -1.5 70.5t-3.5 43.5q34 8 61 8q39 0 84 -14q-3 -10 -7.5 -39t-9 -70t-8.5 -90 t-7.5 -97t-5.5 -92t-2 -75q0 -50 4.5 -78t27.5 -41.5t71.5 -16.5t137.5 -3q81 0 81 310q0 17 -1.5 53t-3 77t-2.5 79.5t-1 60.5q33 -2 54 -2.5t33 -5t16.5 -16t4.5 -35.5q0 -5 -1 -44l-2 -96l-4.5 -127.5t-4.5 -134.5t-3.5 -118.5t-2.5 -80.5zM449 698q-12 -3 -19.5 -4 t-15.5 -1t-20 1t-33 2q-3 24 -3.5 35.5t-0.5 24.5v16q0 7 1 8q19 4 30.5 5.5t20.5 1t18 -2.5t24 -5q2 -20 3 -31t1 -19q0 -7 -1.5 -13.5t-4.5 -17.5zM278 701q-18 -5 -27.5 -6.5t-28.5 -1.5h-23q-9 0 -10 1q-3 24 -3.5 35.5t-0.5 24.5v16q0 7 1 8q20 4 31.5 6.5t20.5 2.5 q2 1 4 1l14 -1q9 -2 24 -5q2 -20 3 -31t1 -19q0 -7 -1.5 -13.5t-4.5 -17.5z" />
<glyph unicode="&#xfd;" horiz-adv-x="537" d="M537 642q1 1 1 2l-22 -35l-59 -91l-81 -130l-89 -148l-83 -148q-39 -72 -63 -128q-51 6 -84 8.5t-50 2.5h-7q91 168 207 345q-4 9 -17 34l-30 60l-38 76l-39 81q-19 40 -34.5 76t-23.5 61q11 -2 46 -5.5t94 -7.5q4 -21 14 -49t23 -58l25 -58q13 -29 25 -52l18 -36 q7 -13 7 -12q49 79 80 142t45 111q5 -1 38 -11zM192 720q-5 17 -11.5 30.5t-17.5 34.5l64 27l44 20q20 9 38 18l40 21q5 -20 10 -35t15 -33q-33 -11 -55 -19t-41 -17t-39 -20z" />
<glyph unicode="&#xfe;" horiz-adv-x="561" d="M555 338q0 -151 -63 -311q-30 -3 -65 -3q-20 0 -56 2l-73 4q-38 2 -70.5 4.5t-44.5 3.5q-14 -1 -19.5 -10.5t-5.5 -23.5q0 -13 4.5 -26t11.5 -21q-29 -3 -63 -3q-5 1 -10 1h-12h-28h-18q-10 0 -21 1q0 8 1.5 40.5t3.5 80.5t5 107.5t6.5 121t6.5 121.5t5 109l4 82 q1 33 1 42q21 0 43 5.5t41 5.5q14 0 26 -5.5t12 -26.5q0 -12 -2 -28t-2 -31q0 -14 3 -22.5t13 -12.5t30 -5t54 -1q35 0 74.5 1.5t74.5 3t60.5 3t32.5 1.5q40 -92 40 -210zM461 326q0 83 -12 101q-40 5 -91 7.5t-114 2.5q-66 0 -78 -21q0 -1 -2.5 -20t-6 -49t-6 -68t-2.5 -77 q0 -36 7 -51h248q27 0 42 48t15 127z" />
<glyph unicode="&#xff;" horiz-adv-x="537" d="M537 642q1 1 1 2l-22 -35l-59 -91l-81 -130l-89 -148l-83 -148q-39 -72 -63 -128q-51 6 -84 8.5t-50 2.5h-7q91 168 207 345q-4 9 -17 34l-30 60l-38 76l-39 81q-19 40 -34.5 76t-23.5 61q11 -2 46 -5.5t94 -7.5q4 -21 14 -49t23 -58l25 -58q13 -29 25 -52l18 -36 q7 -13 7 -12q49 79 80 142t45 111q5 -1 38 -11zM422 732q-12 -3 -19.5 -4t-15.5 -1t-20 1t-33 2q-3 24 -3.5 35.5t-0.5 24.5v16q0 7 1 8q19 4 30.5 5.5t20.5 1t18 -2.5t24 -5q2 -20 3 -31t1 -19q0 -7 -1.5 -13.5t-4.5 -17.5zM251 735q-18 -5 -27.5 -6.5t-28.5 -1.5h-23 q-9 0 -10 1q-3 24 -3.5 35.5t-0.5 24.5v16q0 7 1 8q20 4 31.5 6.5t20.5 2.5q2 1 4 1l14 -1q9 -2 24 -5q2 -20 3 -31t1 -19q0 -7 -1.5 -13.5t-4.5 -17.5z" />
<glyph unicode="&#x131;" horiz-adv-x="176" d="M159 15q-23 2 -46.5 3.5t-47.5 1.5h-20q-3 8 -6.5 46t-6.5 93t-6 119.5t-5 125.5t-3.5 111.5t-1.5 76.5q0 34 11.5 51t27.5 24t33 8t29 3q-3 -45 -3 -120q0 -129 6.5 -228.5t15 -168t15.5 -105.5t8 -41z" />
<glyph unicode="&#x152;" horiz-adv-x="915" d="M873 408q0 -27 -2.5 -51.5t-7.5 -46.5q-3 -4 -26 -5.5t-56.5 -3.5t-71.5 -4t-70.5 -5.5t-54 -9t-21.5 -14.5q0 -56 3 -91.5t11 -55t21 -26.5t34 -7q3 0 28 3t60 6.5t74.5 7t71.5 4.5q-4 -17 -4 -44q0 -18 1.5 -33.5t2.5 -23.5q-9 -7 -28 -7.5t-53.5 -1.5t-87.5 -4.5 t-131 -16.5q-34 -6 -63.5 -10t-59.5 -6.5t-63 -3.5t-75 -1q-91 0 -151 6.5t-91 25.5q-11 91 -18 172t-7 159q0 55 4.5 108.5t13.5 100.5t22 86t30 65q13 21 237 21q237 -9 300 -9q21 0 43.5 1t42.5 1.5t37 1.5t27 1q19 0 37 -0.5t35 -1.5q-2 -8 -2.5 -30.5t-1.5 -60.5 q-27 0 -61 -2l-80 -6q-56 -4 -89.5 -6t-51.5 -10t-23.5 -27.5t-5.5 -58.5q0 -70 30 -97q-1 0 14.5 1.5t40.5 4.5t57 5.5t64.5 5.5t62.5 4.5t52 1.5v-12zM452 283q0 63 -7 139.5t-21 167.5q-6 0 -29.5 1.5t-53 4t-59 4t-47.5 1.5q-51 0 -76.5 -65.5t-25.5 -183.5 q0 -41 4 -85.5t11.5 -84.5t17.5 -70.5t22 -44.5q48 -6 126 -6q97 0 112 15q26 89 26 207z" />
<glyph unicode="&#x153;" horiz-adv-x="915" d="M873 408q0 -27 -2.5 -51.5t-7.5 -46.5q-3 -4 -26 -5.5t-56.5 -3.5t-71.5 -4t-70.5 -5.5t-54 -9t-21.5 -14.5q0 -56 3 -91.5t11 -55t21 -26.5t34 -7q3 0 28 3t60 6.5t74.5 7t71.5 4.5q-4 -17 -4 -44q0 -18 1.5 -33.5t2.5 -23.5q-9 -7 -28 -7.5t-53.5 -1.5t-87.5 -4.5 t-131 -16.5q-34 -6 -63.5 -10t-59.5 -6.5t-63 -3.5t-75 -1q-91 0 -151 6.5t-91 25.5q-11 91 -18 172t-7 159q0 55 4.5 108.5t13.5 100.5t22 86t30 65q13 21 237 21q237 -9 300 -9q21 0 43.5 1t42.5 1.5t37 1.5t27 1q19 0 37 -0.5t35 -1.5q-2 -8 -2.5 -30.5t-1.5 -60.5 q-27 0 -61 -2l-80 -6q-56 -4 -89.5 -6t-51.5 -10t-23.5 -27.5t-5.5 -58.5q0 -70 30 -97q-1 0 14.5 1.5t40.5 4.5t57 5.5t64.5 5.5t62.5 4.5t52 1.5v-12zM452 283q0 63 -7 139.5t-21 167.5q-6 0 -29.5 1.5t-53 4t-59 4t-47.5 1.5q-51 0 -76.5 -65.5t-25.5 -183.5 q0 -41 4 -85.5t11.5 -84.5t17.5 -70.5t22 -44.5q48 -6 126 -6q97 0 112 15q26 89 26 207z" />
<glyph unicode="&#x178;" horiz-adv-x="601" d="M601 679q-7 -12 -23 -35l-38 -52l-46 -64l-48 -65l-40 -60.5t-27 -48.5q-6 -14 -13.5 -52t-14.5 -84t-11.5 -91t-4.5 -73q0 -36 6 -52q-51 3 -80 3q-55 0 -75 -10q6 12 14 37.5t16 57.5l16 70q9 36 15 69.5t10 61.5t4 44q0 15 -12.5 44t-31.5 66t-43 78l-44 80l-39 72 q-17 33 -24 53q13 -4 48 -6.5t93 -4.5q6 -25 24 -64t38 -77l36 -68q17 -29 20 -35l45 70l43 67q19 33 33 60.5t19 47.5q10 -2 135 -39zM470 736q-12 -3 -19.5 -4t-15.5 -1t-20 1t-33 2q-3 24 -3.5 35.5t-0.5 24.5v16q0 7 1 8q19 4 30.5 5.5t20.5 1t18 -2.5t24 -5 q2 -20 3 -31t1 -19q0 -7 -1.5 -13.5t-4.5 -17.5zM299 739q-18 -5 -27.5 -6.5t-28.5 -1.5h-23q-9 0 -10 1q-3 24 -3.5 35.5t-0.5 24.5v16q0 7 1 8q20 4 31.5 6.5t20.5 2.5q2 1 4 1l14 -1q9 -2 24 -5q2 -20 3 -31t1 -19q0 -7 -1.5 -13.5t-4.5 -17.5z" />
<glyph unicode="&#x2c6;" horiz-adv-x="516" d="M380 730q-60 27 -96 66q-22 -17 -48 -33.5t-57 -33.5q-10 22 -41 56q74 30 148 83q68 -53 140 -89l-22 -25q-12 -13 -24 -24z" />
<glyph unicode="&#x2da;" horiz-adv-x="492" d="M173 791q0 -80 76 -80q79 0 79 80q0 84 -75 84q-48 0 -64 -18.5t-16 -65.5zM384 797q0 -63 -37 -97q-34 -31 -92 -31q-136 0 -136 113q0 72 31 104t100 32q134 0 134 -121z" />
<glyph unicode="&#x2dc;" horiz-adv-x="516" d="M369 840q13 -12 27 -23.5t30 -22.5q-28 -53 -72 -56q-4 -1 -9 -1q-40 0 -85 25q-26 8 -41.5 11t-25.5 -0.5t-16.5 -15t-14.5 -32.5q-14 11 -29.5 21.5t-32.5 18.5q17 40 60 62q17 9 38 9q36 0 84 -24q28 -12 46 -12h8q19 5 33 40z" />
<glyph unicode="&#x2000;" horiz-adv-x="459" />
<glyph unicode="&#x2001;" horiz-adv-x="918" />
<glyph unicode="&#x2002;" horiz-adv-x="459" />
<glyph unicode="&#x2003;" horiz-adv-x="918" />
<glyph unicode="&#x2004;" horiz-adv-x="306" />
<glyph unicode="&#x2005;" horiz-adv-x="229" />
<glyph unicode="&#x2006;" horiz-adv-x="153" />
<glyph unicode="&#x2007;" horiz-adv-x="153" />
<glyph unicode="&#x2008;" horiz-adv-x="114" />
<glyph unicode="&#x2009;" horiz-adv-x="183" />
<glyph unicode="&#x200a;" horiz-adv-x="51" />
<glyph unicode="&#x2010;" horiz-adv-x="409" d="M389 351q-14 -3 -35 -3q-16 0 -50 3t-71.5 6t-71.5 6t-51 3q-54 0 -74 -14v25q0 57 3 96l16 -2q16 -2 39 -4.5t47 -4.5t40 -2h208v-109z" />
<glyph unicode="&#x2011;" horiz-adv-x="409" d="M389 351q-14 -3 -35 -3q-16 0 -50 3t-71.5 6t-71.5 6t-51 3q-54 0 -74 -14v25q0 57 3 96l16 -2q16 -2 39 -4.5t47 -4.5t40 -2h208v-109z" />
<glyph unicode="&#x2013;" horiz-adv-x="499" d="M465 277q-33 3 -89.5 5t-118.5 2q-21 1 -41 1q-40 0 -78 -1q-58 -1 -93 -4q1 13 1 27v14q-1 21 -6 41q21 0 62.5 -1t92 -1.5t104 -1.5t99.5 -1h51q13 0 15 1q-1 -27 -1 -45q0 -25 2 -36z" />
<glyph unicode="&#x2014;" horiz-adv-x="719" d="M679 277q-22 2 -71.5 3.5t-112.5 2.5t-133 1q-36 1 -69.5 1t-65.5 -1q-64 0 -114.5 -1t-73.5 -3q1 13 1 27v14q-1 21 -6 41q14 0 49 -0.5t83 -1t105 -0.5l115 -2h112q55 -1 98 -1h66q14 0 16 1q-1 -27 -1 -45q0 -25 2 -36z" />
<glyph unicode="&#x2018;" horiz-adv-x="203" d="M148 770q5 -66 13.5 -124.5t22.5 -110.5q-12 4 -22 5t-20 1l-48 -15q0 20 -8 51t-19.5 63.5t-23.5 61.5t-21 44q10 4 28.5 7.5t37.5 6.5l36 6q17 2 24 4z" />
<glyph unicode="&#x2019;" horiz-adv-x="203" d="M195 746q-47 -125 -62 -224q-20 15 -38 19l-51 2q5 12 9.5 35t7.5 49.5t5 52t2 43.5v23q0 5 -0.5 10.5t-1.5 10.5q12 0 30 -3l38 -8q19 -3 36 -6.5t25 -3.5z" />
<glyph unicode="&#x201a;" horiz-adv-x="203" d="M195 104q-47 -125 -62 -224q-20 15 -38 19l-51 2q5 12 9.5 35t7.5 49.5t5 52t2 43.5v23q0 5 -0.5 10.5t-1.5 10.5q12 0 30 -3l38 -8q19 -3 36 -6.5t25 -3.5z" />
<glyph unicode="&#x201c;" horiz-adv-x="323" d="M273 780q2 -132 24 -235q-10 4 -21.5 5t-14.5 2q-1 0 -10 -3l-43 -14q0 16 -4.5 40t-12 51t-17 54.5t-19.5 51.5q1 -57 6.5 -108t15.5 -96q-10 4 -21.5 5t-14.5 2q-1 0 -10 -3l-43 -14q0 22 -6.5 53t-16 62.5t-20 60t-18.5 45.5q22 9 57 14.5t71.5 10t68.5 8t49 8.5z" />
<glyph unicode="&#x201d;" horiz-adv-x="323" d="M312 746q-41 -130 -53 -228q-20 14 -38 16q-1 0 -13 -0.5t-37 -0.5q3 9 5.5 24.5t5 34.5t3.5 39.5t1 39.5v30q0 8 -0.5 15t-1.5 15q-34 -108 -45 -197q-11 7 -22 11t-21 4h-17h-13q-7 0 -15 -1q3 10 6.5 29t5.5 42t3.5 46.5t1.5 41.5t-1 34t-3 30q3 1 11 1h12 q20 0 51.5 -4t63.5 -9.5t59 -9.5t38 -4q3 0 6.5 0.5t6.5 0.5z" />
<glyph unicode="&#x201e;" horiz-adv-x="323" d="M312 137q-41 -130 -53 -228q-20 14 -38 16q-1 0 -13 -0.5t-37 -0.5q3 9 5.5 24.5t5 34.5t3.5 39.5t1 39.5v30q0 8 -0.5 15t-1.5 15q-34 -108 -45 -197q-11 7 -22 11t-21 4h-17h-13q-7 0 -15 -1q3 10 6.5 29t5.5 42t3.5 46.5t1.5 41.5t-1 34t-3 30q3 1 11 1h12 q20 0 51.5 -4t63.5 -9.5t59 -9.5t38 -4q3 0 6.5 0.5t6.5 0.5z" />
<glyph unicode="&#x2022;" horiz-adv-x="580" d="M287 441q143 0 143 -152q0 -142 -148 -142q-144 0 -144 145q1 37 7.5 63t22.5 43.5t44.5 27.5t74.5 15z" />
<glyph unicode="&#x2026;" horiz-adv-x="1030" d="M207 -19q0 -12 -7.5 -22.5t-19 -18.5t-24.5 -12.5t-25 -4.5q-56 0 -56 76q0 53 51 53q15 0 29.5 -5.5t26 -15.5t18.5 -22.5t7 -27.5zM990 10q0 -12 -7.5 -22.5t-19 -18.5t-24.5 -12.5t-25 -4.5q-56 0 -56 76q0 53 51 53q15 0 29.5 -5.5t26 -15.5t18.5 -22.5t7 -27.5z M587 -19q0 -12 -7.5 -22.5t-19 -18.5t-24.5 -12.5t-25 -4.5q-56 0 -56 76q0 53 51 53q15 0 29.5 -5.5t26 -15.5t18.5 -22.5t7 -27.5z" />
<glyph unicode="&#x202f;" horiz-adv-x="183" />
<glyph unicode="&#x2039;" horiz-adv-x="317" d="M36 304q32 15 54.5 28t43.5 28t43 35l53 50q6 -29 13 -43.5t19 -34.5l-43 -25l-47 -26q-23 -13 -46 -24t-44 -17q45 -24 92 -59l94 -70q-11 -18 -22 -30t-20 -32q-33 32 -56 51.5t-42.5 34t-39.5 27.5l-48 32v11q0 11 -1 20q-2 15 -3 44z" />
<glyph unicode="&#x203a;" horiz-adv-x="317" d="M268 304q-1 -29 -3 -44q-1 -9 -1 -20v-11l-48 -32q-20 -13 -39.5 -27.5t-42.5 -34t-56 -51.5q-9 20 -20 32t-22 30l94 70q47 35 92 59q-21 6 -44 17t-46 24l-47 26l-43 25q12 20 19 34.5t13 43.5l53 -50q22 -20 43 -35t43.5 -28t54.5 -28z" />
<glyph unicode="&#x205f;" horiz-adv-x="229" />
<glyph unicode="&#x20ac;" horiz-adv-x="552" d="M149 304q5 -1 13 -1h19h54h51q21 0 26 1q-6 -58 -47 -102q-29 -1 -57.5 -2.5t-54.5 -2.5q3 -23 11.5 -36.5t25 -20.5t42 -9.5t63.5 -2.5q34 0 69 3t64 9q15 3 24.5 4.5t17 3t14.5 3.5l19 5q10 -13 16.5 -23.5t8.5 -18.5q4 -17 12 -63q-46 -31 -198 -34q-74 -1 -123 -1 t-72 1q-47 2 -56 8q-22 10 -29 170q-28 0 -46 3v107h44v92q-44 -3 -60 -12q0 26 1 56t3 63q-1 0 16 -2l41 -3q13 216 279 216q35 0 74.5 -3.5t81.5 -10.5q-2 -27 -13 -51.5t-33 -45.5q-44 9 -96 9q-112 0 -191 -39q-6 -33 -9 -82q58 -2 119 -2q12 -1 25 -1q49 0 100 2 q-9 -62 -49 -105q-51 3 -104 6.5t-95 5.5q-1 -17 -1 -32v-25v-37z" />
<glyph unicode="&#x2122;" horiz-adv-x="695" d="M126 290q4 36 5.5 75.5t1.5 81.5q0 30 -0.5 58.5t-2.5 47.5q-1 1 -11 1h-12q-14 0 -33.5 -0.5t-38.5 -2.5q1 7 2 15t1 15q0 5 -0.5 13t-0.5 13q1 -1 13 -1h165q19 0 36.5 0.5t34.5 1.5l-2 -21q-1 -11 -1 -16q0 -4 0.5 -11t0.5 -9q-20 2 -38 3t-30 1q-8 0 -15 -0.5 t-14 -1.5q-2 -17 -2.5 -43.5t-0.5 -54.5q0 -46 2 -83.5t5 -82.5zM448 296q-15 50 -40 106t-51 101q-1 -1 -1 -15v-53q0 -38 1.5 -74.5t5.5 -71.5h-62q4 57 6.5 114.5t2.5 109.5v81q0 10 -1 11q7 -1 12.5 -1.5t9.5 -0.5h29q4 0 9 0.5t12 1.5q42 -119 101 -226q51 94 93 225 q7 2 14 3.5t18 1.5q9 0 18.5 -1t19.5 -3q-2 -42 -2.5 -80.5t-0.5 -66.5q0 -49 2.5 -91.5t7.5 -78.5q-3 0 -12 0.5t-15 0.5t-18 -0.5t-22 -0.5q2 45 3 82.5t1 63.5v48q0 14 -1 15q-62 -117 -87 -206z" />
</font>
</defs>
</svg>
